<?xml version="1.0" encoding="utf-8"?>
<svg fill="none" height="536" viewBox="0 0 739 536" width="739" xmlns="http://www.w3.org/2000/svg">
<g filter="url(#filter0_d_1083_953)">
<path d="M579.06 54.744V60H559.62V46.5L573.012 44.7V40.056H559.764V34.8H574.668L579.06 39.192V48.912L565.668 50.712V54.744H579.06ZM582.296 55.608V39.192L586.688 34.8H598.064L602.456 39.192V55.608L598.064 60H586.688L582.296 55.608ZM588.344 40.272V54.528H596.408V40.272H588.344ZM604.738 60L619.174 34.8H625.042L610.606 60H604.738ZM618.634 60V53.952H624.25V60H618.634ZM605.53 40.848V34.8H611.146V40.848H605.53Z" fill="#AFE3EC"/>
</g>
<path d="M559.12 87V85.72H565.84V82.152L558.96 81.624V77.08L560.24 75.8H567.12V77.08H560.4V80.488L567.28 81.016V85.72L566 87H559.12ZM569.194 76.6L570.634 75.8V78.36H574.794V79.64H570.634V85.72H574.794V87H570.634L569.194 85.56V76.6ZM575.909 85.56V81.88L582.309 81.72V79.32H576.229V78.04H582.309L583.749 79.48V87H577.349L575.909 85.56ZM577.349 83.16V85.72H582.309V82.84L577.349 83.16ZM585.663 87V75.8H587.103V81.704H589.951L592.351 78.04H593.999L591.183 82.168L594.143 87H592.511L590.095 82.984H587.103V87H585.663ZM595.257 87V78.04H596.697V87H595.257ZM595.257 76.92V75.64H596.697V76.92H595.257ZM598.616 87V78.04H605.176L606.616 79.48V87H605.176V79.32H600.056V87H598.616ZM609.018 89.24V87.96H614.938V85.72H609.898L608.458 84.28V79.48L610.058 78.04H616.378V87.736L614.874 89.24H609.018ZM609.898 79.32V84.44H614.938V79.32H609.898ZM622.46 87V79.48L623.9 78.04H628.7V79.32H623.9V87H622.46ZM629.896 85.56V79.48L631.336 78.04H637.576V83H631.336V85.72H637.256V87H631.336L629.896 85.56ZM631.336 81.88L636.2 81.72V79.32H631.336V81.88ZM640.565 87L639.093 78.04H640.517L641.749 85.72H642.613L644.181 78.84H646.165L647.733 85.72H648.597L649.829 78.04H651.253L649.781 87H646.629L645.173 80.472L643.717 87H640.565ZM652.691 85.56V81.88L659.091 81.72V79.32H653.011V78.04H659.091L660.531 79.48V87H654.131L652.691 85.56ZM654.131 83.16V85.72H659.091V82.84L654.131 83.16ZM662.444 87V79.48L663.884 78.04H668.684V79.32H663.884V87H662.444ZM677.96 75.8V87H671.32L669.88 85.56V79.48L671.32 78.04H676.52V75.8H677.96ZM671.32 85.72H676.52V79.32H671.32V85.72ZM679.802 87V85.72H686.202V83.08H679.802V79.48L681.242 78.04H687.642V79.32H681.242V81.8H687.642V85.608L686.25 87H679.802Z" fill="#AFE3EC"/>
<path d="M148.04 60.496V64H135.08V55L144.008 53.8V50.704H135.176V47.2H145.112L148.04 50.128V56.608L139.112 57.808V60.496H148.04ZM150.197 61.072V50.128L153.125 47.2H160.709L163.637 50.128V61.072L160.709 64H153.125L150.197 61.072ZM154.229 50.848V60.352H159.605V50.848H154.229ZM165.159 64L174.783 47.2H178.695L169.071 64H165.159ZM174.423 64V59.968H178.167V64H174.423ZM165.687 51.232V47.2H169.431V51.232H165.687Z" fill="white"/>
<path d="M136.4 83.32H141.84V77.08H136.4V83.32ZM143.28 77.08V83.32L142 84.6H136.4V87H134.96V75.8H142L143.28 77.08ZM152.882 78.04V87H146.322L144.882 85.56V78.04H146.322V85.72H151.442V78.04H152.882ZM154.804 87V75.8H156.244V78.04H161.444L162.884 79.48V85.56L161.444 87H154.804ZM156.244 85.72H161.444V79.32H156.244V85.72ZM164.726 87V75.8H166.166V87H164.726ZM168.085 87V78.04H169.525V87H168.085ZM168.085 76.92V75.64H169.525V76.92H168.085ZM171.364 85.56V79.48L172.804 78.04H178.724V79.32H172.804V85.72H178.724V87H172.804L171.364 85.56ZM184.239 87V85.72H190.639V83.08H184.239V79.48L185.679 78.04H192.079V79.32H185.679V81.8H192.079V85.608L190.687 87H184.239ZM193.753 85.56V81.88L200.153 81.72V79.32H194.073V78.04H200.153L201.593 79.48V87H195.193L193.753 85.56ZM195.193 83.16V85.72H200.153V82.84L195.193 83.16ZM203.507 87V75.8H204.947V87H203.507ZM206.786 85.56V79.48L208.226 78.04H214.466V83H208.226V85.72H214.146V87H208.226L206.786 85.56ZM208.226 81.88L213.09 81.72V79.32H208.226V81.88Z" fill="white"/>
<path d="M557.736 442.2L560.52 444.984V456.216L557.736 459H547.968V455.496H556.488V452.904H548.832L547.08 451.152V444.984L549.864 442.2H557.736ZM556.488 445.56H551.112V450.12H556.488V445.56ZM562.041 459L571.665 442.2H575.577L565.953 459H562.041ZM571.305 459V454.968H575.049V459H571.305ZM562.569 446.232V442.2H566.313V446.232H562.569Z" fill="white"/>
<path d="M549.76 482V472.08H546.32V470.8H554.64V472.08H551.2V482H549.76ZM555.193 480.56V474.48L556.633 473.04H562.873V478H556.633V480.72H562.553V482H556.633L555.193 480.56ZM556.633 476.88L561.497 476.72V474.32H556.633V476.88ZM564.55 480.56V476.88L570.95 476.72V474.32H564.87V473.04H570.95L572.39 474.48V482H565.99L564.55 480.56ZM565.99 478.16V480.72H570.95V477.84L565.99 478.16ZM574.304 473.04H585.504L587.104 474.64V482H585.664V474.32H581.424V482H579.984V474.32H575.744V482H574.304V473.04Z" fill="white"/>
<path d="M536 129L558.83 101H689" stroke="white" stroke-opacity="0.5" stroke-width="0.626935"/>
<path d="M586 263L608.83 235H678" stroke="white" stroke-opacity="0.5" stroke-width="0.626935"/>
<path d="M501 426.5L523.563 494H591.5" stroke="white" stroke-opacity="0.5" stroke-width="0.626935"/>
<path d="M613.944 349L621.528 337.936V335.56H616.608V338.248H612.744V332.2H625.56V338.536L618.768 349H613.944ZM626.729 349L636.353 332.2H640.265L630.641 349H626.729ZM635.993 349V344.968H639.737V349H635.993ZM627.257 336.232V332.2H631.001V336.232H627.257Z" fill="white"/>
<path d="M612.96 372V360.8H620.64V362.08H614.4V366.56H620.32V367.84H614.4V372H612.96ZM622.005 370.56V364.48L623.445 363.04H628.405L629.845 364.48V370.56L628.405 372H623.445L622.005 370.56ZM623.445 370.72H628.405V364.32H623.445V370.72ZM639.679 363.04V372H633.119L631.679 370.56V363.04H633.119V370.72H638.239V363.04H639.679ZM641.601 372V363.04H648.161L649.601 364.48V372H648.161V364.32H643.041V372H641.601ZM659.523 360.8V372H652.883L651.443 370.56V364.48L652.883 363.04H658.083V360.8H659.523ZM652.883 370.72H658.083V364.32H652.883V370.72ZM661.364 370.56V364.48L662.804 363.04H669.044V368H662.804V370.72H668.724V372H662.804L661.364 370.56ZM662.804 366.88L667.668 366.72V364.32H662.804V366.88ZM670.882 372V364.48L672.322 363.04H677.122V364.32H672.322V372H670.882ZM678.318 372V370.72H684.718V368.08H678.318V364.48L679.758 363.04H686.158V364.32H679.758V366.8H686.158V370.608L684.766 372H678.318ZM692.148 372V364.48L693.588 363.04H698.388V364.32H693.588V372H692.148ZM699.583 370.56V364.48L701.023 363.04H705.983L707.423 364.48V370.56L705.983 372H701.023L699.583 370.56ZM701.023 370.72H705.983V364.32H701.023V370.72ZM717.257 363.04V372H710.697L709.257 370.56V363.04H710.697V370.72H715.817V363.04H717.257ZM719.179 372V363.04H725.739L727.179 364.48V372H725.739V364.32H720.619V372H719.179ZM737.101 360.8V372H730.461L729.021 370.56V364.48L730.461 363.04H735.661V360.8H737.101ZM730.461 370.72H735.661V364.32H730.461V370.72Z" fill="white"/>
<path d="M613.08 197.096V193.952L615.24 193.832V184.184L613.176 184.4V181.16L619.272 180.2V193.832L621.24 193.952V197.096L617.16 196.904L613.08 197.096ZM623.393 194.072V183.128L626.321 180.2H633.905L636.833 183.128V194.072L633.905 197H626.321L623.393 194.072ZM627.425 183.848V193.352H632.801V183.848H627.425ZM638.354 197L647.978 180.2H651.89L642.266 197H638.354ZM647.618 197V192.968H651.362V197H647.618ZM638.882 184.232V180.2H642.626V184.232H638.882Z" fill="white"/>
<path d="M612.96 220V208.8H614.4V218.72H619.744V215.52H621.12V220H612.96ZM622.554 220V211.04H623.994V220H622.554ZM622.554 209.92V208.64H623.994V209.92H622.554ZM633.913 211.04V222.24H632.473V220H627.273L625.833 218.56V212.48L627.273 211.04H633.913ZM632.473 212.32H627.273V218.72H632.473V212.32ZM643.835 211.04V220H637.275L635.835 218.56V211.04H637.275V218.72H642.395V211.04H643.835ZM645.757 220V211.04H647.197V220H645.757ZM645.757 209.92V208.64H647.197V209.92H645.757ZM657.116 208.8V220H650.476L649.036 218.56V212.48L650.476 211.04H655.676V208.8H657.116ZM650.476 218.72H655.676V212.32H650.476V218.72ZM659.038 220V211.04H660.478V220H659.038ZM659.038 209.92V208.64H660.478V209.92H659.038ZM662.398 209.6L663.838 208.8V211.36H667.998V212.64H663.838V218.72H667.998V220H663.838L662.398 218.56V209.6ZM668.969 222.24V220.96H673.145L673.833 218.72H671.097L668.489 211.04H669.945L672.121 217.44H674.217L676.281 211.04H677.737L674.153 222.24H668.969Z" fill="white"/>
<path d="M568 346L610.633 385H739" stroke="white" stroke-opacity="0.5" stroke-width="0.626935"/>
<path d="M266 129L246.303 101H134" stroke="white" stroke-opacity="0.5" stroke-width="0.626935"/>
<path d="M1.08 248.096V244.952L3.24 244.832V235.184L1.176 235.4V232.16L7.272 231.2V244.832L9.24 244.952V248.096L5.16 247.904L1.08 248.096ZM21.7845 248H11.0325V244.64H20.4165V241.04H12.4725V237.824H19.9365V234.56H11.2725V231.2H21.3045L24.0885 233.984V238.04L22.5765 239.216L24.5685 240.8V245.216L21.7845 248ZM25.6742 248L35.2982 231.2H39.2102L29.5862 248H25.6742ZM34.9382 248V243.968H38.6822V248H34.9382ZM26.2022 235.232V231.2H29.9462V235.232H26.2022Z" fill="white"/>
<path d="M0.96 271V259.8H2.4V269.72H7.744V266.52H9.12V271H0.96ZM10.3938 269.56V265.88L16.7938 265.72V263.32H10.7138V262.04H16.7938L18.2338 263.48V271H11.8338L10.3938 269.56ZM11.8338 267.16V269.72H16.7938V266.84L11.8338 267.16ZM28.1475 262.04V271H21.5875L20.1475 269.56V262.04H21.5875V269.72H26.7075V262.04H28.1475ZM30.0694 271V262.04H36.6294L38.0694 263.48V271H36.6294V263.32H31.5094V271H30.0694ZM39.9113 269.56V263.48L41.3513 262.04H47.2713V263.32H41.3513V269.72H47.2713V271H41.3513L39.9113 269.56ZM48.71 271V259.8H50.15V262.04H55.27L56.71 263.48V271H55.27V263.32H50.15V271H48.71ZM62.7881 273.24V262.04H69.4281L70.8681 263.48V269.56L69.4281 271H64.2281V273.24H62.7881ZM69.4281 263.32H64.2281V269.72H69.4281V263.32ZM72.55 269.56V265.88L78.95 265.72V263.32H72.87V262.04H78.95L80.39 263.48V271H73.99L72.55 269.56ZM73.99 267.16V269.72H78.95V266.84L73.99 267.16ZM90.3038 259.8V271H83.6638L82.2238 269.56V263.48L83.6638 262.04H88.8638V259.8H90.3038ZM83.6638 269.72H88.8638V263.32H83.6638V269.72ZM96.3819 271V263.48L97.8219 262.04H102.622V263.32H97.8219V271H96.3819ZM103.818 269.56V263.48L105.258 262.04H110.218L111.658 263.48V269.56L110.218 271H105.258L103.818 269.56ZM105.258 269.72H110.218V263.32H105.258V269.72ZM121.491 262.04V271H114.931L113.491 269.56V262.04H114.931V269.72H120.051V262.04H121.491ZM123.413 271V262.04H129.973L131.413 263.48V271H129.973V263.32H124.853V271H123.413ZM141.335 259.8V271H134.695L133.255 269.56V263.48L134.695 262.04H139.895V259.8H141.335ZM134.695 269.72H139.895V263.32H134.695V269.72Z" fill="white"/>
<path d="M200 313L170.157 285H4.22889e-06" stroke="white" stroke-opacity="0.5" stroke-width="0.626935"/>
<path d="M195.08 498.096V494.952L197.24 494.832V485.184L195.176 485.4V482.16L201.272 481.2V494.832L203.24 494.952V498.096L199.16 497.904L195.08 498.096ZM205.393 495.072V484.128L208.321 481.2H215.905L218.833 484.128V495.072L215.905 498H208.321L205.393 495.072ZM209.425 484.848V494.352H214.801V484.848H209.425ZM220.354 498L229.978 481.2H233.89L224.266 498H220.354ZM229.618 498V493.968H233.362V498H229.618ZM220.882 485.232V481.2H224.626V485.232H220.882Z" fill="white"/>
<path d="M194.96 519.72V511.08L196.24 509.8H202.16V511.112H196.4V519.688H202.32V521H196.24L194.96 519.72ZM203.677 519.56V513.48L205.117 512.04H210.077L211.517 513.48V519.56L210.077 521H205.117L203.677 519.56ZM205.117 519.72H210.077V513.32H205.117V519.72ZM213.351 512.04H224.551L226.151 513.64V521H224.711V513.32H220.471V521H219.031V513.32H214.791V521H213.351V512.04ZM228.069 512.04H239.269L240.869 513.64V521H239.429V513.32H235.189V521H233.749V513.32H229.509V521H228.069V512.04ZM250.788 512.04V521H244.228L242.788 519.56V512.04H244.228V519.72H249.348V512.04H250.788ZM252.71 521V512.04H259.27L260.71 513.48V521H259.27V513.32H254.15V521H252.71ZM262.632 521V512.04H264.072V521H262.632ZM262.632 510.92V509.64H264.072V510.92H262.632ZM265.991 510.6L267.431 509.8V512.36H271.591V513.64H267.431V519.72H271.591V521H267.431L265.991 519.56V510.6ZM272.562 523.24V521.96H276.738L277.426 519.72H274.69L272.082 512.04H273.538L275.714 518.44H277.81L279.874 512.04H281.33L277.746 523.24H272.562ZM286.616 521V513.48L288.056 512.04H292.856V513.32H288.056V521H286.616ZM294.052 519.56V513.48L295.492 512.04H300.452L301.892 513.48V519.56L300.452 521H295.492L294.052 519.56ZM295.492 519.72H300.452V513.32H295.492V519.72ZM311.726 512.04V521H305.166L303.726 519.56V512.04H305.166V519.72H310.286V512.04H311.726ZM313.648 521V512.04H320.208L321.648 513.48V521H320.208V513.32H315.088V521H313.648ZM331.569 509.8V521H324.929L323.489 519.56V513.48L324.929 512.04H330.129V509.8H331.569ZM324.929 519.72H330.129V513.32H324.929V519.72Z" fill="white"/>
<path d="M127.08 406.096V402.952L129.24 402.832V393.184L127.176 393.4V390.16L133.272 389.2V402.832L135.24 402.952V406.096L131.16 405.904L127.08 406.096ZM136.745 406L146.369 389.2H150.281L140.657 406H136.745ZM146.009 406V401.968H149.753V406H146.009ZM137.273 393.232V389.2H141.017V393.232H137.273Z" fill="white"/>
<path d="M126.32 429L129.232 417.8H133.168L136.08 429H134.608L133.872 426.12H128.528L127.792 429H126.32ZM128.848 424.872H133.552L132.064 419.048H130.336L128.848 424.872ZM145.366 417.8V429H138.726L137.286 427.56V421.48L138.726 420.04H143.926V417.8H145.366ZM138.726 427.72H143.926V421.32H138.726V427.72ZM149.032 429L146.504 420.04H147.96L150.088 427.72H151.848L153.976 420.04H155.432L152.904 429H149.032ZM156.569 429V420.04H158.009V429H156.569ZM156.569 418.92V417.64H158.009V418.92H156.569ZM159.849 429V427.72H166.249V425.08H159.849V421.48L161.289 420.04H167.689V421.32H161.289V423.8H167.689V427.608L166.297 429H159.849ZM169.443 427.56V421.48L170.883 420.04H175.843L177.283 421.48V427.56L175.843 429H170.883L169.443 427.56ZM170.883 427.72H175.843V421.32H170.883V427.72ZM179.116 429V421.48L180.556 420.04H185.356V421.32H180.556V429H179.116Z" fill="white"/>
<path d="M384 466.5L352.245 535H193.999" stroke="white" stroke-opacity="0.5" stroke-width="0.626935"/>
<path d="M256 416L236.602 443H126" stroke="white" stroke-opacity="0.5" stroke-width="0.626935"/>
<g filter="url(#filter1_d_1083_953)">
<path d="M517.449 241.23C518.361 246.989 518.91 252.8 519.093 258.629L477.365 259.94C477.237 255.86 476.853 251.793 476.214 247.761L517.449 241.23Z" fill="#AFE3EC"/>
</g>
<g filter="url(#filter2_d_1083_953)">
<path d="M512.351 219.996C514.153 225.542 515.605 231.195 516.697 236.923L475.688 244.746C474.923 240.737 473.907 236.779 472.646 232.897L512.351 219.996Z" fill="#AFE3EC"/>
</g>
<g filter="url(#filter3_d_1083_953)">
<path d="M503.994 199.821C506.642 205.017 508.96 210.374 510.935 215.86L471.654 230.002C470.272 226.162 468.649 222.412 466.796 218.775L503.994 199.821Z" fill="#AFE3EC"/>
</g>
<g filter="url(#filter4_d_1083_953)">
<path d="M492.584 181.202C496.012 185.92 499.139 190.848 501.949 195.958L465.364 216.07C463.397 212.493 461.208 209.044 458.809 205.741L492.584 181.202Z" fill="#AFE3EC"/>
</g>
<g filter="url(#filter5_d_1083_953)">
<path d="M461.797 150.415C466.515 153.842 471.012 157.563 475.263 161.555L446.684 191.988C443.708 189.194 440.56 186.59 437.258 184.19L461.797 150.415Z" fill="#AFE3EC"/>
</g>
<g filter="url(#filter6_d_1083_953)">
<path d="M443.178 139.005C448.374 141.652 453.398 144.623 458.22 147.901L434.754 182.431C431.378 180.136 427.861 178.056 424.224 176.203L443.178 139.005Z" fill="#AFE3EC"/>
</g>
<g filter="url(#filter7_d_1083_953)">
<path d="M401.769 125.55C407.529 126.463 413.225 127.736 418.825 129.363L407.177 169.454C403.257 168.315 399.27 167.424 395.238 166.785L401.769 125.55Z" fill="#AFE3EC"/>
</g>
<g filter="url(#filter8_d_1083_953)">
<path d="M379.999 123.837C385.831 123.837 391.656 124.204 397.441 124.934L392.209 166.354C388.159 165.842 384.081 165.586 379.999 165.586V123.837Z" fill="#AFE3EC"/>
</g>
<g filter="url(#filter9_d_1083_953)">
<path d="M358.229 125.55C363.989 124.638 369.8 124.089 375.628 123.906L376.939 165.634C372.86 165.762 368.792 166.147 364.76 166.785L358.229 125.55Z" fill="#AFE3EC"/>
</g>
<g filter="url(#filter10_d_1083_953)">
<path d="M336.996 130.648C342.541 128.846 348.195 127.395 353.923 126.302L361.746 167.311C357.736 168.076 353.779 169.092 349.897 170.354L336.996 130.648Z" fill="#AFE3EC"/>
</g>
<g filter="url(#filter11_d_1083_953)">
<path d="M519.162 263C519.162 268.831 518.796 274.656 518.065 280.442L476.645 275.209C477.157 271.159 477.413 267.082 477.413 263H519.162Z" fill="#AFE3EC"/>
</g>
<g filter="url(#filter12_d_1083_953)">
<path d="M517.449 284.77C516.537 290.529 515.263 296.225 513.637 301.825L473.545 290.177C474.684 286.258 475.575 282.27 476.214 278.239L517.449 284.77Z" fill="#AFE3EC"/>
</g>
<g filter="url(#filter13_d_1083_953)">
<path d="M512.351 306.004C510.549 311.549 508.4 316.976 505.918 322.252L468.142 304.477C469.88 300.783 471.384 296.984 472.646 293.102L512.351 306.004Z" fill="#AFE3EC"/>
</g>
<g filter="url(#filter14_d_1083_953)">
<path d="M503.994 326.178C501.347 331.374 498.376 336.398 495.098 341.221L460.569 317.755C462.863 314.379 464.943 310.862 466.796 307.225L503.994 326.178Z" fill="#AFE3EC"/>
</g>
<g filter="url(#filter15_d_1083_953)">
<path d="M492.584 344.798C489.157 349.515 485.436 354.013 481.445 358.263L451.011 329.684C453.805 326.709 456.41 323.561 458.809 320.258L492.584 344.798Z" fill="#AFE3EC"/>
</g>
<g filter="url(#filter16_d_1083_953)">
<path d="M478.402 361.403C474.279 365.526 469.901 369.386 465.293 372.96L439.705 339.972C442.93 337.47 445.995 334.768 448.881 331.882L478.402 361.403Z" fill="#AFE3EC"/>
</g>
<g filter="url(#filter17_d_1083_953)">
<path d="M461.797 375.585C457.08 379.012 452.151 382.14 447.042 384.949L426.929 348.364C430.506 346.398 433.956 344.209 437.258 341.809L461.797 375.585Z" fill="#AFE3EC"/>
</g>
<g filter="url(#filter18_d_1083_953)">
<path d="M443.178 386.995C437.982 389.642 432.625 391.96 427.139 393.935L412.997 354.655C416.838 353.272 420.587 351.649 424.224 349.796L443.178 386.995Z" fill="#AFE3EC"/>
</g>
<g filter="url(#filter19_d_1083_953)">
<path d="M423.003 395.352C417.457 397.153 411.804 398.605 406.076 399.698L398.253 358.688C402.262 357.923 406.22 356.907 410.102 355.646L423.003 395.352Z" fill="#AFE3EC"/>
</g>
<g filter="url(#filter20_d_1083_953)">
<path d="M401.769 400.449C396.01 401.362 390.199 401.911 384.371 402.094L383.059 360.366C387.139 360.238 391.207 359.853 395.238 359.214L401.769 400.449Z" fill="#AFE3EC"/>
</g>
<g filter="url(#filter21_d_1083_953)">
<path d="M379.999 402.163C374.168 402.163 368.343 401.796 362.558 401.065L367.79 359.646C371.84 360.157 375.918 360.414 379.999 360.414V402.163Z" fill="#AFE3EC"/>
</g>
<g filter="url(#filter22_d_1083_953)">
<path d="M358.229 400.449C352.47 399.537 346.774 398.264 341.174 396.637L352.822 356.546C356.741 357.685 360.729 358.576 364.76 359.214L358.229 400.449Z" fill="#AFE3EC"/>
</g>
<g filter="url(#filter23_d_1083_953)">
<mask fill="white" id="path-47-inside-1_1083_953">
<path d="M336.996 395.352C331.45 393.55 326.023 391.401 320.747 388.918L338.522 351.143C342.216 352.881 346.015 354.385 349.897 355.646L336.996 395.352Z"/>
</mask>
<path d="M336.996 395.352C331.45 393.55 326.023 391.401 320.747 388.918L338.522 351.143C342.216 352.881 346.015 354.385 349.897 355.646L336.996 395.352Z" fill="#AFE3EC"/>
<path d="M336.996 395.352C331.45 393.55 326.023 391.401 320.747 388.918L338.522 351.143C342.216 352.881 346.015 354.385 349.897 355.646L336.996 395.352Z" mask="url(#path-47-inside-1_1083_953)" stroke="#AFE3EC" stroke-width="2.97674"/>
</g>
<g filter="url(#filter24_d_1083_953)">
<mask fill="white" id="path-48-inside-2_1083_953">
<path d="M316.821 386.995C311.625 384.348 306.601 381.376 301.778 378.099L325.245 343.569C328.621 345.863 332.137 347.943 335.774 349.796L316.821 386.995Z"/>
</mask>
<path d="M316.821 386.995C311.625 384.348 306.601 381.376 301.778 378.099L325.245 343.569C328.621 345.863 332.137 347.943 335.774 349.796L316.821 386.995Z" fill="#AFE3EC"/>
<path d="M316.821 386.995C311.625 384.348 306.601 381.376 301.778 378.099L325.245 343.569C328.621 345.863 332.137 347.943 335.774 349.796L316.821 386.995Z" mask="url(#path-48-inside-2_1083_953)" stroke="#AFE3EC" stroke-width="2.97674"/>
</g>
<g filter="url(#filter25_d_1083_953)">
<mask fill="white" id="path-49-inside-3_1083_953">
<path d="M281.596 361.403C277.473 357.28 273.613 352.901 270.039 348.294L303.027 322.706C305.529 325.931 308.231 328.996 311.117 331.882L281.596 361.403Z"/>
</mask>
<path d="M281.596 361.403C277.473 357.28 273.613 352.901 270.039 348.294L303.027 322.706C305.529 325.931 308.231 328.996 311.117 331.882L281.596 361.403Z" fill="#AFE3EC"/>
<path d="M281.596 361.403C277.473 357.28 273.613 352.901 270.039 348.294L303.027 322.706C305.529 325.931 308.231 328.996 311.117 331.882L281.596 361.403Z" mask="url(#path-49-inside-3_1083_953)" stroke="#AFE3EC" stroke-width="2.97674"/>
</g>
<g filter="url(#filter26_d_1083_953)">
<mask fill="white" id="path-50-inside-4_1083_953">
<path d="M267.414 344.798C263.987 340.08 260.859 335.152 258.05 330.042L294.635 309.929C296.601 313.506 298.791 316.956 301.19 320.258L267.414 344.798Z"/>
</mask>
<path d="M267.414 344.798C263.987 340.08 260.859 335.152 258.05 330.042L294.635 309.929C296.601 313.506 298.791 316.956 301.19 320.258L267.414 344.798Z" fill="#AFE3EC"/>
<path d="M267.414 344.798C263.987 340.08 260.859 335.152 258.05 330.042L294.635 309.929C296.601 313.506 298.791 316.956 301.19 320.258L267.414 344.798Z" mask="url(#path-50-inside-4_1083_953)" stroke="#AFE3EC" stroke-width="2.97674"/>
</g>
<g filter="url(#filter27_d_1083_953)">
<mask fill="white" id="path-51-inside-5_1083_953">
<path d="M256.004 326.178C253.357 320.983 251.039 315.626 249.064 310.14L288.344 295.998C289.727 299.838 291.35 303.588 293.203 307.225L256.004 326.178Z"/>
</mask>
<path d="M256.004 326.178C253.357 320.983 251.039 315.626 249.064 310.14L288.344 295.998C289.727 299.838 291.35 303.588 293.203 307.225L256.004 326.178Z" fill="#AFE3EC"/>
<path d="M256.004 326.178C253.357 320.983 251.039 315.626 249.064 310.14L288.344 295.998C289.727 299.838 291.35 303.588 293.203 307.225L256.004 326.178Z" mask="url(#path-51-inside-5_1083_953)" stroke="#AFE3EC" stroke-width="2.97674"/>
</g>
<g filter="url(#filter28_d_1083_953)">
<mask fill="white" id="path-52-inside-6_1083_953">
<path d="M247.648 306.004C245.846 300.458 244.394 294.804 243.302 289.076L284.311 281.253C285.076 285.263 286.092 289.22 287.353 293.102L247.648 306.004Z"/>
</mask>
<path d="M247.648 306.004C245.846 300.458 244.394 294.804 243.302 289.076L284.311 281.253C285.076 285.263 286.092 289.22 287.353 293.102L247.648 306.004Z" fill="#AFE3EC"/>
<path d="M247.648 306.004C245.846 300.458 244.394 294.804 243.302 289.076L284.311 281.253C285.076 285.263 286.092 289.22 287.353 293.102L247.648 306.004Z" mask="url(#path-52-inside-6_1083_953)" stroke="#AFE3EC" stroke-width="2.97674"/>
</g>
<g filter="url(#filter29_d_1083_953)">
<mask fill="white" id="path-53-inside-7_1083_953">
<path d="M242.55 284.77C241.638 279.01 241.088 273.199 240.905 267.371L282.633 266.06C282.762 270.139 283.146 274.207 283.785 278.239L242.55 284.77Z"/>
</mask>
<path d="M242.55 284.77C241.638 279.01 241.088 273.199 240.905 267.371L282.633 266.06C282.762 270.139 283.146 274.207 283.785 278.239L242.55 284.77Z" fill="#AFE3EC"/>
<path d="M242.55 284.77C241.638 279.01 241.088 273.199 240.905 267.371L282.633 266.06C282.762 270.139 283.146 274.207 283.785 278.239L242.55 284.77Z" mask="url(#path-53-inside-7_1083_953)" stroke="#AFE3EC" stroke-width="2.97674"/>
</g>
<g filter="url(#filter30_d_1083_953)">
<mask fill="white" id="path-54-inside-8_1083_953">
<path d="M240.837 263C240.837 257.169 241.203 251.343 241.934 245.558L283.354 250.791C282.842 254.84 282.585 258.918 282.585 263H240.837Z"/>
</mask>
<path d="M240.837 263C240.837 257.169 241.203 251.343 241.934 245.558L283.354 250.791C282.842 254.84 282.585 258.918 282.585 263H240.837Z" fill="#AFE3EC"/>
<path d="M240.837 263C240.837 257.169 241.203 251.343 241.934 245.558L283.354 250.791C282.842 254.84 282.585 258.918 282.585 263H240.837Z" mask="url(#path-54-inside-8_1083_953)" stroke="#AFE3EC" stroke-width="2.97674"/>
</g>
<g filter="url(#filter31_d_1083_953)">
<path d="M242.55 241.23C243.462 235.471 244.735 229.774 246.362 224.175L286.453 235.822C285.315 239.742 284.423 243.729 283.785 247.761L242.55 241.23Z" fill="#AFE3EC"/>
</g>
<g filter="url(#filter32_d_1083_953)">
<path d="M242.55 241.23C243.462 235.471 244.735 229.774 246.362 224.175L286.453 235.822C285.315 239.742 284.423 243.729 283.785 247.761L242.55 241.23Z" fill="#AFE3EC"/>
</g>
<g filter="url(#filter33_d_1083_953)">
<path d="M247.648 219.996C249.45 214.45 251.598 209.023 254.081 203.747L291.857 221.523C290.119 225.216 288.615 229.015 287.353 232.897L247.648 219.996Z" fill="#AFE3EC"/>
</g>
<g filter="url(#filter34_d_1083_953)">
<path d="M256.004 199.821C258.652 194.626 261.623 189.602 264.901 184.779L299.43 208.245C297.136 211.621 295.056 215.138 293.203 218.775L256.004 199.821Z" fill="#AFE3EC"/>
</g>
<g filter="url(#filter35_d_1083_953)">
<path d="M267.414 181.202C270.842 176.484 274.562 171.987 278.554 167.736L308.988 196.315C306.193 199.291 303.589 202.439 301.19 205.741L267.414 181.202Z" fill="#AFE3EC"/>
</g>
<g filter="url(#filter36_d_1083_953)">
<path d="M298.202 150.415C302.919 146.987 307.847 143.86 312.957 141.051L333.07 177.635C329.493 179.602 326.043 181.791 322.741 184.19L298.202 150.415Z" fill="#AFE3EC"/>
</g>
<g filter="url(#filter37_d_1083_953)">
<path d="M316.821 139.005C322.016 136.358 327.373 134.039 332.86 132.064L347.002 171.345C343.161 172.728 339.411 174.35 335.774 176.203L316.821 139.005Z" fill="#AFE3EC"/>
</g>
<g filter="url(#filter38_d_1083_953)">
<path d="M281.596 164.597C285.72 160.474 290.098 156.614 294.706 153.04L320.294 186.028C317.068 188.529 314.004 191.231 311.117 194.118L281.596 164.597Z" fill="#AFE3EC"/>
</g>
<mask fill="white" id="path-63-inside-9_1083_953">
<path d="M585.959 196.08C588.763 204.71 591.022 213.508 592.723 222.421L578.949 225.049C577.358 216.712 575.246 208.484 572.623 200.413L585.959 196.08Z"/>
</mask>
<path d="M585.959 196.08C588.763 204.71 591.022 213.508 592.723 222.421L578.949 225.049C577.358 216.712 575.246 208.484 572.623 200.413L585.959 196.08Z" mask="url(#path-63-inside-9_1083_953)" stroke="#AFE3EC" stroke-width="2"/>
<mask fill="white" id="path-64-inside-10_1083_953">
<path d="M572.955 164.685C577.075 172.77 580.682 181.106 583.756 189.644L570.562 194.393C567.688 186.409 564.314 178.612 560.461 171.051L572.955 164.685Z"/>
</mask>
<path d="M572.955 164.685C577.075 172.77 580.682 181.106 583.756 189.644L570.562 194.393C567.688 186.409 564.314 178.612 560.461 171.051L572.955 164.685Z" mask="url(#path-64-inside-10_1083_953)" stroke="#AFE3EC" stroke-width="2"/>
<mask fill="white" id="path-65-inside-11_1083_953">
<path d="M555.2 135.71C560.533 143.052 565.4 150.721 569.772 158.672L557.484 165.428C553.395 157.991 548.844 150.818 543.855 143.953L555.2 135.71Z"/>
</mask>
<path d="M555.2 135.71C560.533 143.052 565.4 150.721 569.772 158.672L557.484 165.428C553.395 157.991 548.844 150.818 543.855 143.953L555.2 135.71Z" mask="url(#path-65-inside-11_1083_953)" stroke="#AFE3EC" stroke-width="2"/>
<mask fill="white" id="path-66-inside-12_1083_953">
<path d="M507.29 87.8008C514.631 93.1344 521.63 98.9242 528.245 105.136L518.646 115.358C512.459 109.548 505.914 104.133 499.048 99.1451L507.29 87.8008Z"/>
</mask>
<path d="M507.29 87.8008C514.631 93.1344 521.63 98.9242 528.245 105.136L518.646 115.358C512.459 109.548 505.914 104.133 499.048 99.1451L507.29 87.8008Z" mask="url(#path-66-inside-12_1083_953)" stroke="#AFE3EC" stroke-width="2"/>
<mask fill="white" id="path-67-inside-13_1083_953">
<path d="M478.316 70.0453C486.401 74.1649 494.219 78.7885 501.724 83.889L493.842 95.4866C486.823 90.7164 479.511 86.3922 471.95 82.5393L478.316 70.0453Z"/>
</mask>
<path d="M478.316 70.0453C486.401 74.1649 494.219 78.7885 501.724 83.889L493.842 95.4866C486.823 90.7164 479.511 86.3922 471.95 82.5393L478.316 70.0453Z" mask="url(#path-67-inside-13_1083_953)" stroke="#AFE3EC" stroke-width="2"/>
<mask fill="white" id="path-68-inside-14_1083_953">
<path d="M338.981 50.3621C383.616 41.7519 429.828 47.4054 471.07 66.5217C512.313 85.6379 546.494 117.248 568.771 156.872L455.509 220.549C446.598 204.699 432.925 192.055 416.428 184.409C399.931 176.762 381.447 174.501 363.593 177.945L338.981 50.3621Z"/>
</mask>
<path d="M338.981 50.3621C383.616 41.7519 429.828 47.4054 471.07 66.5217C512.313 85.6379 546.494 117.248 568.771 156.872L455.509 220.549C446.598 204.699 432.925 192.055 416.428 184.409C399.931 176.762 381.447 174.501 363.593 177.945L338.981 50.3621Z" fill="#AFE3EC" fill-opacity="0.2" mask="url(#path-68-inside-14_1083_953)" stroke="#AFE3EC" stroke-width="2"/>
<mask fill="white" id="path-69-inside-15_1083_953">
<path d="M164.515 241.475C169.033 196.243 187.67 153.579 217.786 119.529C247.901 85.4791 287.968 61.7691 332.31 51.7584L360.924 178.503C343.188 182.508 327.161 191.992 315.115 205.612C303.068 219.232 295.613 236.297 293.806 254.39L164.515 241.475Z"/>
</mask>
<path d="M164.515 241.475C169.033 196.243 187.67 153.579 217.786 119.529C247.901 85.4791 287.968 61.7691 332.31 51.7584L360.924 178.503C343.188 182.508 327.161 191.992 315.115 205.612C303.068 219.232 295.613 236.297 293.806 254.39L164.515 241.475Z" mask="url(#path-69-inside-15_1083_953)" stroke="#46535B" stroke-width="2"/>
<mask fill="white" id="path-70-inside-16_1083_953">
<path d="M226.871 416.13C204.979 394.238 188.036 367.908 177.184 338.913C166.331 309.918 161.822 278.934 163.959 248.048L293.584 257.019C292.729 269.373 294.533 281.767 298.874 293.365C303.215 304.963 309.992 315.495 318.749 324.252L226.871 416.13Z"/>
</mask>
<path d="M226.871 416.13C204.979 394.238 188.036 367.908 177.184 338.913C166.331 309.918 161.822 278.934 163.959 248.048L293.584 257.019C292.729 269.373 294.533 281.767 298.874 293.365C303.215 304.963 309.992 315.495 318.749 324.252L226.871 416.13Z" mask="url(#path-70-inside-16_1083_953)" stroke="#46535B" stroke-width="2"/>
<mask fill="white" id="path-71-inside-17_1083_953">
<path d="M407.326 477.827C355.021 484.48 302.085 471.822 258.448 442.227L331.379 334.691C348.834 346.529 370.009 351.592 390.931 348.931L407.326 477.827Z"/>
</mask>
<path d="M407.326 477.827C355.021 484.48 302.085 471.822 258.448 442.227L331.379 334.691C348.834 346.529 370.009 351.592 390.931 348.931L407.326 477.827Z" mask="url(#path-71-inside-17_1083_953)" stroke="#46535B" stroke-width="2"/>
<mask fill="white" id="path-72-inside-18_1083_953">
<path d="M537.967 411.286C504.595 446.606 460.315 469.675 412.246 476.785L393.234 348.249C412.461 345.405 430.174 336.177 443.522 322.049L537.967 411.286Z"/>
</mask>
<path d="M537.967 411.286C504.595 446.606 460.315 469.675 412.246 476.785L393.234 348.249C412.461 345.405 430.174 336.177 443.522 322.049L537.967 411.286Z" mask="url(#path-72-inside-18_1083_953)" stroke="#46535B" stroke-width="2"/>
<mask fill="white" id="path-73-inside-19_1083_953">
<path d="M593.692 300.924C586.648 340.053 568.969 376.487 542.592 406.234L445.372 320.028C455.923 308.13 462.995 293.556 465.812 277.904L593.692 300.924Z"/>
</mask>
<path d="M593.692 300.924C586.648 340.053 568.969 376.487 542.592 406.234L445.372 320.028C455.923 308.13 462.995 293.556 465.812 277.904L593.692 300.924Z" mask="url(#path-73-inside-19_1083_953)" stroke="#46535B" stroke-width="2"/>
<mask fill="white" id="path-74-inside-20_1083_953">
<path d="M573.106 163.446C593.226 202.534 600.973 246.82 595.318 290.417L466.462 273.702C468.725 256.263 465.626 238.548 457.578 222.913L573.106 163.446Z"/>
</mask>
<path d="M573.106 163.446C593.226 202.534 600.973 246.82 595.318 290.417L466.462 273.702C468.725 256.263 465.626 238.548 457.578 222.913L573.106 163.446Z" mask="url(#path-74-inside-20_1083_953)" stroke="#46535B" stroke-width="2"/>
<mask fill="white" id="path-75-inside-21_1083_953">
<path d="M413.878 49.108C422.84 50.5275 431.704 52.509 440.418 55.0406L436.506 68.5062C428.356 66.1385 420.066 64.2854 411.684 62.9578L413.878 49.108Z"/>
</mask>
<path d="M413.878 49.108C422.84 50.5275 431.704 52.509 440.418 55.0406L436.506 68.5062C428.356 66.1385 420.066 64.2854 411.684 62.9578L413.878 49.108Z" mask="url(#path-75-inside-21_1083_953)" stroke="#AFE3EC" stroke-width="2"/>
<mask fill="white" id="path-76-inside-22_1083_953">
<path d="M313.08 468.959C304.45 466.155 296.005 462.811 287.794 458.948L293.765 446.26C301.444 449.873 309.342 453 317.413 455.623L313.08 468.959Z"/>
</mask>
<path d="M313.08 468.959C304.45 466.155 296.005 462.811 287.794 458.948L293.765 446.26C301.444 449.873 309.342 453 317.413 455.623L313.08 468.959Z" mask="url(#path-76-inside-22_1083_953)" stroke="#AFE3EC" stroke-width="2"/>
<mask fill="white" id="path-77-inside-23_1083_953">
<path d="M281.685 455.955C273.6 451.835 265.782 447.211 258.277 442.111L266.158 430.513C273.177 435.284 280.489 439.608 288.051 443.461L281.685 455.955Z"/>
</mask>
<path d="M281.685 455.955C273.6 451.835 265.782 447.211 258.277 442.111L266.158 430.513C273.177 435.284 280.489 439.608 288.051 443.461L281.685 455.955Z" mask="url(#path-77-inside-23_1083_953)" stroke="#AFE3EC" stroke-width="2"/>
<path d="M252.711 438.199C245.37 432.866 238.371 427.076 231.756 420.864L365.176 278.786C365.837 279.408 366.537 279.987 367.271 280.52L252.711 438.199Z" fill="#46535B"/>
<mask fill="white" id="path-79-inside-24_1083_953">
<path d="M226.871 416.13C220.454 409.713 214.448 402.9 208.886 395.73L219.966 387.136C225.167 393.841 230.785 400.213 236.786 406.214L226.871 416.13Z"/>
</mask>
<path d="M226.871 416.13C220.454 409.713 214.448 402.9 208.886 395.73L219.966 387.136C225.167 393.841 230.785 400.213 236.786 406.214L226.871 416.13Z" mask="url(#path-79-inside-24_1083_953)" stroke="#AFE3EC" stroke-width="2"/>
<mask fill="white" id="path-80-inside-25_1083_953">
<path d="M204.801 390.29C199.468 382.948 194.601 375.279 190.229 367.328L202.517 360.572C206.605 368.009 211.157 375.182 216.146 382.047L204.801 390.29Z"/>
</mask>
<path d="M204.801 390.29C199.468 382.948 194.601 375.279 190.229 367.328L202.517 360.572C206.605 368.009 211.157 375.182 216.146 382.047L204.801 390.29Z" mask="url(#path-80-inside-25_1083_953)" stroke="#AFE3EC" stroke-width="2"/>
<mask fill="white" id="path-81-inside-26_1083_953">
<path d="M187.046 361.315C182.926 353.23 179.319 344.894 176.245 336.356L189.438 331.607C192.313 339.591 195.687 347.388 199.54 354.949L187.046 361.315Z"/>
</mask>
<path d="M187.046 361.315C182.926 353.23 179.319 344.894 176.245 336.356L189.438 331.607C192.313 339.591 195.687 347.388 199.54 354.949L187.046 361.315Z" mask="url(#path-81-inside-26_1083_953)" stroke="#AFE3EC" stroke-width="2"/>
<mask fill="white" id="path-82-inside-27_1083_953">
<path d="M174.041 329.92C171.237 321.29 168.978 312.492 167.278 303.579L181.052 300.951C182.642 309.288 184.755 317.516 187.377 325.587L174.041 329.92Z"/>
</mask>
<path d="M174.041 329.92C171.237 321.29 168.978 312.492 167.278 303.579L181.052 300.951C182.642 309.288 184.755 317.516 187.377 325.587L174.041 329.92Z" mask="url(#path-82-inside-27_1083_953)" stroke="#AFE3EC" stroke-width="2"/>
<mask fill="white" id="path-83-inside-28_1083_953">
<path d="M166.108 296.877C164.689 287.915 163.834 278.872 163.549 269.802L177.565 269.362C177.831 277.844 178.631 286.301 179.958 294.684L166.108 296.877Z"/>
</mask>
<path d="M166.108 296.877C164.689 287.915 163.834 278.872 163.549 269.802L177.565 269.362C177.831 277.844 178.631 286.301 179.958 294.684L166.108 296.877Z" mask="url(#path-83-inside-28_1083_953)" stroke="#AFE3EC" stroke-width="2"/>
<mask fill="white" id="path-84-inside-29_1083_953">
<path d="M166.108 296.877C164.689 287.915 163.834 278.872 163.549 269.802L177.565 269.362C177.831 277.844 178.631 286.301 179.958 294.684L166.108 296.877Z"/>
</mask>
<path d="M166.108 296.877C164.689 287.915 163.834 278.872 163.549 269.802L177.565 269.362C177.831 277.844 178.631 286.301 179.958 294.684L166.108 296.877Z" mask="url(#path-84-inside-29_1083_953)" stroke="#AFE3EC" stroke-width="2"/>
<path d="M604 263C604 386.712 503.712 487 380 487C256.288 487 156 386.712 156 263C156 139.288 256.288 39 380 39C503.712 39 604 139.288 604 263ZM158.24 263C158.24 385.475 257.525 484.76 380 484.76C502.475 484.76 601.76 385.475 601.76 263C601.76 140.525 502.475 41.24 380 41.24C257.525 41.24 158.24 140.525 158.24 263Z" fill="#AFE3EC" opacity="0.1"/>
<defs>
<filter color-interpolation-filters="sRGB" filterUnits="userSpaceOnUse" height="93.2" id="filter0_d_1083_953" width="133.422" x="525.62" y="0.799988">
<feFlood flood-opacity="0" result="BackgroundImageFix"/>
<feColorMatrix in="SourceAlpha" result="hardAlpha" type="matrix" values="0 0 0 0 0 0 0 0 0 0 0 0 0 0 0 0 0 0 127 0"/>
<feMorphology in="SourceAlpha" operator="dilate" radius="4" result="effect1_dropShadow_1083_953"/>
<feOffset/>
<feGaussianBlur stdDeviation="15"/>
<feComposite in2="hardAlpha" operator="out"/>
<feColorMatrix type="matrix" values="0 0 0 0 0.686275 0 0 0 0 0.890196 0 0 0 0 0.92549 0 0 0 0.5 0"/>
<feBlend in2="BackgroundImageFix" mode="normal" result="effect1_dropShadow_1083_953"/>
<feBlend in="SourceGraphic" in2="effect1_dropShadow_1083_953" mode="normal" result="shape"/>
</filter>
<filter color-interpolation-filters="sRGB" filterUnits="userSpaceOnUse" height="62.71" id="filter1_d_1083_953" width="86.8795" x="454.214" y="219.23">
<feFlood flood-opacity="0" result="BackgroundImageFix"/>
<feColorMatrix in="SourceAlpha" result="hardAlpha" type="matrix" values="0 0 0 0 0 0 0 0 0 0 0 0 0 0 0 0 0 0 127 0"/>
<feOffset/>
<feGaussianBlur stdDeviation="11"/>
<feComposite in2="hardAlpha" operator="out"/>
<feColorMatrix type="matrix" values="0 0 0 0 0.686275 0 0 0 0 0.890196 0 0 0 0 0.92549 0 0 0 0.5 0"/>
<feBlend in2="BackgroundImageFix" mode="normal" result="effect1_dropShadow_1083_953"/>
<feBlend in="SourceGraphic" in2="effect1_dropShadow_1083_953" mode="normal" result="shape"/>
</filter>
<filter color-interpolation-filters="sRGB" filterUnits="userSpaceOnUse" height="68.7501" id="filter2_d_1083_953" width="88.0516" x="450.646" y="197.996">
<feFlood flood-opacity="0" result="BackgroundImageFix"/>
<feColorMatrix in="SourceAlpha" result="hardAlpha" type="matrix" values="0 0 0 0 0 0 0 0 0 0 0 0 0 0 0 0 0 0 127 0"/>
<feOffset/>
<feGaussianBlur stdDeviation="11"/>
<feComposite in2="hardAlpha" operator="out"/>
<feColorMatrix type="matrix" values="0 0 0 0 0.686275 0 0 0 0 0.890196 0 0 0 0 0.92549 0 0 0 0.5 0"/>
<feBlend in2="BackgroundImageFix" mode="normal" result="effect1_dropShadow_1083_953"/>
<feBlend in="SourceGraphic" in2="effect1_dropShadow_1083_953" mode="normal" result="shape"/>
</filter>
<filter color-interpolation-filters="sRGB" filterUnits="userSpaceOnUse" height="74.1808" id="filter3_d_1083_953" width="88.1392" x="444.796" y="177.821">
<feFlood flood-opacity="0" result="BackgroundImageFix"/>
<feColorMatrix in="SourceAlpha" result="hardAlpha" type="matrix" values="0 0 0 0 0 0 0 0 0 0 0 0 0 0 0 0 0 0 127 0"/>
<feOffset/>
<feGaussianBlur stdDeviation="11"/>
<feComposite in2="hardAlpha" operator="out"/>
<feColorMatrix type="matrix" values="0 0 0 0 0.686275 0 0 0 0 0.890196 0 0 0 0 0.92549 0 0 0 0.5 0"/>
<feBlend in2="BackgroundImageFix" mode="normal" result="effect1_dropShadow_1083_953"/>
<feBlend in="SourceGraphic" in2="effect1_dropShadow_1083_953" mode="normal" result="shape"/>
</filter>
<filter color-interpolation-filters="sRGB" filterUnits="userSpaceOnUse" height="78.8683" id="filter4_d_1083_953" width="87.1398" x="436.809" y="159.202">
<feFlood flood-opacity="0" result="BackgroundImageFix"/>
<feColorMatrix in="SourceAlpha" result="hardAlpha" type="matrix" values="0 0 0 0 0 0 0 0 0 0 0 0 0 0 0 0 0 0 127 0"/>
<feOffset/>
<feGaussianBlur stdDeviation="11"/>
<feComposite in2="hardAlpha" operator="out"/>
<feColorMatrix type="matrix" values="0 0 0 0 0.686275 0 0 0 0 0.890196 0 0 0 0 0.92549 0 0 0 0.5 0"/>
<feBlend in2="BackgroundImageFix" mode="normal" result="effect1_dropShadow_1083_953"/>
<feBlend in="SourceGraphic" in2="effect1_dropShadow_1083_953" mode="normal" result="shape"/>
</filter>
<filter color-interpolation-filters="sRGB" filterUnits="userSpaceOnUse" height="85.5734" id="filter5_d_1083_953" width="82.005" x="415.258" y="128.415">
<feFlood flood-opacity="0" result="BackgroundImageFix"/>
<feColorMatrix in="SourceAlpha" result="hardAlpha" type="matrix" values="0 0 0 0 0 0 0 0 0 0 0 0 0 0 0 0 0 0 127 0"/>
<feOffset/>
<feGaussianBlur stdDeviation="11"/>
<feComposite in2="hardAlpha" operator="out"/>
<feColorMatrix type="matrix" values="0 0 0 0 0.686275 0 0 0 0 0.890196 0 0 0 0 0.92549 0 0 0 0.5 0"/>
<feBlend in2="BackgroundImageFix" mode="normal" result="effect1_dropShadow_1083_953"/>
<feBlend in="SourceGraphic" in2="effect1_dropShadow_1083_953" mode="normal" result="shape"/>
</filter>
<filter color-interpolation-filters="sRGB" filterUnits="userSpaceOnUse" height="87.4258" id="filter6_d_1083_953" width="77.9961" x="402.224" y="117.005">
<feFlood flood-opacity="0" result="BackgroundImageFix"/>
<feColorMatrix in="SourceAlpha" result="hardAlpha" type="matrix" values="0 0 0 0 0 0 0 0 0 0 0 0 0 0 0 0 0 0 127 0"/>
<feOffset/>
<feGaussianBlur stdDeviation="11"/>
<feComposite in2="hardAlpha" operator="out"/>
<feColorMatrix type="matrix" values="0 0 0 0 0.686275 0 0 0 0 0.890196 0 0 0 0 0.92549 0 0 0 0.5 0"/>
<feBlend in2="BackgroundImageFix" mode="normal" result="effect1_dropShadow_1083_953"/>
<feBlend in="SourceGraphic" in2="effect1_dropShadow_1083_953" mode="normal" result="shape"/>
</filter>
<filter color-interpolation-filters="sRGB" filterUnits="userSpaceOnUse" height="87.9035" id="filter7_d_1083_953" width="67.5862" x="373.238" y="103.55">
<feFlood flood-opacity="0" result="BackgroundImageFix"/>
<feColorMatrix in="SourceAlpha" result="hardAlpha" type="matrix" values="0 0 0 0 0 0 0 0 0 0 0 0 0 0 0 0 0 0 127 0"/>
<feOffset/>
<feGaussianBlur stdDeviation="11"/>
<feComposite in2="hardAlpha" operator="out"/>
<feColorMatrix type="matrix" values="0 0 0 0 0.686275 0 0 0 0 0.890196 0 0 0 0 0.92549 0 0 0 0.5 0"/>
<feBlend in2="BackgroundImageFix" mode="normal" result="effect1_dropShadow_1083_953"/>
<feBlend in="SourceGraphic" in2="effect1_dropShadow_1083_953" mode="normal" result="shape"/>
</filter>
<filter color-interpolation-filters="sRGB" filterUnits="userSpaceOnUse" height="86.517" id="filter8_d_1083_953" width="61.4417" x="357.999" y="101.837">
<feFlood flood-opacity="0" result="BackgroundImageFix"/>
<feColorMatrix in="SourceAlpha" result="hardAlpha" type="matrix" values="0 0 0 0 0 0 0 0 0 0 0 0 0 0 0 0 0 0 127 0"/>
<feOffset/>
<feGaussianBlur stdDeviation="11"/>
<feComposite in2="hardAlpha" operator="out"/>
<feColorMatrix type="matrix" values="0 0 0 0 0.686275 0 0 0 0 0.890196 0 0 0 0 0.92549 0 0 0 0.5 0"/>
<feBlend in2="BackgroundImageFix" mode="normal" result="effect1_dropShadow_1083_953"/>
<feBlend in="SourceGraphic" in2="effect1_dropShadow_1083_953" mode="normal" result="shape"/>
</filter>
<filter color-interpolation-filters="sRGB" filterUnits="userSpaceOnUse" height="86.8795" id="filter9_d_1083_953" width="62.71" x="336.229" y="101.906">
<feFlood flood-opacity="0" result="BackgroundImageFix"/>
<feColorMatrix in="SourceAlpha" result="hardAlpha" type="matrix" values="0 0 0 0 0 0 0 0 0 0 0 0 0 0 0 0 0 0 127 0"/>
<feOffset/>
<feGaussianBlur stdDeviation="11"/>
<feComposite in2="hardAlpha" operator="out"/>
<feColorMatrix type="matrix" values="0 0 0 0 0.686275 0 0 0 0 0.890196 0 0 0 0 0.92549 0 0 0 0.5 0"/>
<feBlend in2="BackgroundImageFix" mode="normal" result="effect1_dropShadow_1083_953"/>
<feBlend in="SourceGraphic" in2="effect1_dropShadow_1083_953" mode="normal" result="shape"/>
</filter>
<filter color-interpolation-filters="sRGB" filterUnits="userSpaceOnUse" height="88.0516" id="filter10_d_1083_953" width="68.7501" x="314.996" y="104.302">
<feFlood flood-opacity="0" result="BackgroundImageFix"/>
<feColorMatrix in="SourceAlpha" result="hardAlpha" type="matrix" values="0 0 0 0 0 0 0 0 0 0 0 0 0 0 0 0 0 0 127 0"/>
<feOffset/>
<feGaussianBlur stdDeviation="11"/>
<feComposite in2="hardAlpha" operator="out"/>
<feColorMatrix type="matrix" values="0 0 0 0 0.686275 0 0 0 0 0.890196 0 0 0 0 0.92549 0 0 0 0.5 0"/>
<feBlend in2="BackgroundImageFix" mode="normal" result="effect1_dropShadow_1083_953"/>
<feBlend in="SourceGraphic" in2="effect1_dropShadow_1083_953" mode="normal" result="shape"/>
</filter>
<filter color-interpolation-filters="sRGB" filterUnits="userSpaceOnUse" height="61.4417" id="filter11_d_1083_953" width="86.517" x="454.645" y="241">
<feFlood flood-opacity="0" result="BackgroundImageFix"/>
<feColorMatrix in="SourceAlpha" result="hardAlpha" type="matrix" values="0 0 0 0 0 0 0 0 0 0 0 0 0 0 0 0 0 0 127 0"/>
<feOffset/>
<feGaussianBlur stdDeviation="11"/>
<feComposite in2="hardAlpha" operator="out"/>
<feColorMatrix type="matrix" values="0 0 0 0 0.686275 0 0 0 0 0.890196 0 0 0 0 0.92549 0 0 0 0.5 0"/>
<feBlend in2="BackgroundImageFix" mode="normal" result="effect1_dropShadow_1083_953"/>
<feBlend in="SourceGraphic" in2="effect1_dropShadow_1083_953" mode="normal" result="shape"/>
</filter>
<filter color-interpolation-filters="sRGB" filterUnits="userSpaceOnUse" height="67.5862" id="filter12_d_1083_953" width="87.9035" x="451.545" y="256.239">
<feFlood flood-opacity="0" result="BackgroundImageFix"/>
<feColorMatrix in="SourceAlpha" result="hardAlpha" type="matrix" values="0 0 0 0 0 0 0 0 0 0 0 0 0 0 0 0 0 0 127 0"/>
<feOffset/>
<feGaussianBlur stdDeviation="11"/>
<feComposite in2="hardAlpha" operator="out"/>
<feColorMatrix type="matrix" values="0 0 0 0 0.686275 0 0 0 0 0.890196 0 0 0 0 0.92549 0 0 0 0.5 0"/>
<feBlend in2="BackgroundImageFix" mode="normal" result="effect1_dropShadow_1083_953"/>
<feBlend in="SourceGraphic" in2="effect1_dropShadow_1083_953" mode="normal" result="shape"/>
</filter>
<filter color-interpolation-filters="sRGB" filterUnits="userSpaceOnUse" height="73.15" id="filter13_d_1083_953" width="88.2089" x="446.142" y="271.102">
<feFlood flood-opacity="0" result="BackgroundImageFix"/>
<feColorMatrix in="SourceAlpha" result="hardAlpha" type="matrix" values="0 0 0 0 0 0 0 0 0 0 0 0 0 0 0 0 0 0 127 0"/>
<feOffset/>
<feGaussianBlur stdDeviation="11"/>
<feComposite in2="hardAlpha" operator="out"/>
<feColorMatrix type="matrix" values="0 0 0 0 0.686275 0 0 0 0 0.890196 0 0 0 0 0.92549 0 0 0 0.5 0"/>
<feBlend in2="BackgroundImageFix" mode="normal" result="effect1_dropShadow_1083_953"/>
<feBlend in="SourceGraphic" in2="effect1_dropShadow_1083_953" mode="normal" result="shape"/>
</filter>
<filter color-interpolation-filters="sRGB" filterUnits="userSpaceOnUse" height="77.9961" id="filter14_d_1083_953" width="87.4257" x="438.569" y="285.225">
<feFlood flood-opacity="0" result="BackgroundImageFix"/>
<feColorMatrix in="SourceAlpha" result="hardAlpha" type="matrix" values="0 0 0 0 0 0 0 0 0 0 0 0 0 0 0 0 0 0 127 0"/>
<feOffset/>
<feGaussianBlur stdDeviation="11"/>
<feComposite in2="hardAlpha" operator="out"/>
<feColorMatrix type="matrix" values="0 0 0 0 0.686275 0 0 0 0 0.890196 0 0 0 0 0.92549 0 0 0 0.5 0"/>
<feBlend in2="BackgroundImageFix" mode="normal" result="effect1_dropShadow_1083_953"/>
<feBlend in="SourceGraphic" in2="effect1_dropShadow_1083_953" mode="normal" result="shape"/>
</filter>
<filter color-interpolation-filters="sRGB" filterUnits="userSpaceOnUse" height="82.005" id="filter15_d_1083_953" width="85.5734" x="429.011" y="298.258">
<feFlood flood-opacity="0" result="BackgroundImageFix"/>
<feColorMatrix in="SourceAlpha" result="hardAlpha" type="matrix" values="0 0 0 0 0 0 0 0 0 0 0 0 0 0 0 0 0 0 127 0"/>
<feOffset/>
<feGaussianBlur stdDeviation="11"/>
<feComposite in2="hardAlpha" operator="out"/>
<feColorMatrix type="matrix" values="0 0 0 0 0.686275 0 0 0 0 0.890196 0 0 0 0 0.92549 0 0 0 0.5 0"/>
<feBlend in2="BackgroundImageFix" mode="normal" result="effect1_dropShadow_1083_953"/>
<feBlend in="SourceGraphic" in2="effect1_dropShadow_1083_953" mode="normal" result="shape"/>
</filter>
<filter color-interpolation-filters="sRGB" filterUnits="userSpaceOnUse" height="85.0781" id="filter16_d_1083_953" width="82.6973" x="417.705" y="309.882">
<feFlood flood-opacity="0" result="BackgroundImageFix"/>
<feColorMatrix in="SourceAlpha" result="hardAlpha" type="matrix" values="0 0 0 0 0 0 0 0 0 0 0 0 0 0 0 0 0 0 127 0"/>
<feOffset/>
<feGaussianBlur stdDeviation="11"/>
<feComposite in2="hardAlpha" operator="out"/>
<feColorMatrix type="matrix" values="0 0 0 0 0.686275 0 0 0 0 0.890196 0 0 0 0 0.92549 0 0 0 0.5 0"/>
<feBlend in2="BackgroundImageFix" mode="normal" result="effect1_dropShadow_1083_953"/>
<feBlend in="SourceGraphic" in2="effect1_dropShadow_1083_953" mode="normal" result="shape"/>
</filter>
<filter color-interpolation-filters="sRGB" filterUnits="userSpaceOnUse" height="87.1397" id="filter17_d_1083_953" width="78.8683" x="404.929" y="319.809">
<feFlood flood-opacity="0" result="BackgroundImageFix"/>
<feColorMatrix in="SourceAlpha" result="hardAlpha" type="matrix" values="0 0 0 0 0 0 0 0 0 0 0 0 0 0 0 0 0 0 127 0"/>
<feOffset/>
<feGaussianBlur stdDeviation="11"/>
<feComposite in2="hardAlpha" operator="out"/>
<feColorMatrix type="matrix" values="0 0 0 0 0.686275 0 0 0 0 0.890196 0 0 0 0 0.92549 0 0 0 0.5 0"/>
<feBlend in2="BackgroundImageFix" mode="normal" result="effect1_dropShadow_1083_953"/>
<feBlend in="SourceGraphic" in2="effect1_dropShadow_1083_953" mode="normal" result="shape"/>
</filter>
<filter color-interpolation-filters="sRGB" filterUnits="userSpaceOnUse" height="88.1392" id="filter18_d_1083_953" width="74.1808" x="390.997" y="327.796">
<feFlood flood-opacity="0" result="BackgroundImageFix"/>
<feColorMatrix in="SourceAlpha" result="hardAlpha" type="matrix" values="0 0 0 0 0 0 0 0 0 0 0 0 0 0 0 0 0 0 127 0"/>
<feOffset/>
<feGaussianBlur stdDeviation="11"/>
<feComposite in2="hardAlpha" operator="out"/>
<feColorMatrix type="matrix" values="0 0 0 0 0.686275 0 0 0 0 0.890196 0 0 0 0 0.92549 0 0 0 0.5 0"/>
<feBlend in2="BackgroundImageFix" mode="normal" result="effect1_dropShadow_1083_953"/>
<feBlend in="SourceGraphic" in2="effect1_dropShadow_1083_953" mode="normal" result="shape"/>
</filter>
<filter color-interpolation-filters="sRGB" filterUnits="userSpaceOnUse" height="88.0517" id="filter19_d_1083_953" width="68.7501" x="376.253" y="333.646">
<feFlood flood-opacity="0" result="BackgroundImageFix"/>
<feColorMatrix in="SourceAlpha" result="hardAlpha" type="matrix" values="0 0 0 0 0 0 0 0 0 0 0 0 0 0 0 0 0 0 127 0"/>
<feOffset/>
<feGaussianBlur stdDeviation="11"/>
<feComposite in2="hardAlpha" operator="out"/>
<feColorMatrix type="matrix" values="0 0 0 0 0.686275 0 0 0 0 0.890196 0 0 0 0 0.92549 0 0 0 0.5 0"/>
<feBlend in2="BackgroundImageFix" mode="normal" result="effect1_dropShadow_1083_953"/>
<feBlend in="SourceGraphic" in2="effect1_dropShadow_1083_953" mode="normal" result="shape"/>
</filter>
<filter color-interpolation-filters="sRGB" filterUnits="userSpaceOnUse" height="86.8795" id="filter20_d_1083_953" width="62.71" x="361.059" y="337.214">
<feFlood flood-opacity="0" result="BackgroundImageFix"/>
<feColorMatrix in="SourceAlpha" result="hardAlpha" type="matrix" values="0 0 0 0 0 0 0 0 0 0 0 0 0 0 0 0 0 0 127 0"/>
<feOffset/>
<feGaussianBlur stdDeviation="11"/>
<feComposite in2="hardAlpha" operator="out"/>
<feColorMatrix type="matrix" values="0 0 0 0 0.686275 0 0 0 0 0.890196 0 0 0 0 0.92549 0 0 0 0.5 0"/>
<feBlend in2="BackgroundImageFix" mode="normal" result="effect1_dropShadow_1083_953"/>
<feBlend in="SourceGraphic" in2="effect1_dropShadow_1083_953" mode="normal" result="shape"/>
</filter>
<filter color-interpolation-filters="sRGB" filterUnits="userSpaceOnUse" height="86.517" id="filter21_d_1083_953" width="61.4417" x="340.558" y="337.646">
<feFlood flood-opacity="0" result="BackgroundImageFix"/>
<feColorMatrix in="SourceAlpha" result="hardAlpha" type="matrix" values="0 0 0 0 0 0 0 0 0 0 0 0 0 0 0 0 0 0 127 0"/>
<feOffset/>
<feGaussianBlur stdDeviation="11"/>
<feComposite in2="hardAlpha" operator="out"/>
<feColorMatrix type="matrix" values="0 0 0 0 0.686275 0 0 0 0 0.890196 0 0 0 0 0.92549 0 0 0 0.5 0"/>
<feBlend in2="BackgroundImageFix" mode="normal" result="effect1_dropShadow_1083_953"/>
<feBlend in="SourceGraphic" in2="effect1_dropShadow_1083_953" mode="normal" result="shape"/>
</filter>
<filter color-interpolation-filters="sRGB" filterUnits="userSpaceOnUse" height="87.9035" id="filter22_d_1083_953" width="67.5863" x="319.174" y="334.546">
<feFlood flood-opacity="0" result="BackgroundImageFix"/>
<feColorMatrix in="SourceAlpha" result="hardAlpha" type="matrix" values="0 0 0 0 0 0 0 0 0 0 0 0 0 0 0 0 0 0 127 0"/>
<feOffset/>
<feGaussianBlur stdDeviation="11"/>
<feComposite in2="hardAlpha" operator="out"/>
<feColorMatrix type="matrix" values="0 0 0 0 0.686275 0 0 0 0 0.890196 0 0 0 0 0.92549 0 0 0 0.5 0"/>
<feBlend in2="BackgroundImageFix" mode="normal" result="effect1_dropShadow_1083_953"/>
<feBlend in="SourceGraphic" in2="effect1_dropShadow_1083_953" mode="normal" result="shape"/>
</filter>
<filter color-interpolation-filters="sRGB" filterUnits="userSpaceOnUse" height="88.2089" id="filter23_d_1083_953" width="73.1501" x="298.747" y="329.143">
<feFlood flood-opacity="0" result="BackgroundImageFix"/>
<feColorMatrix in="SourceAlpha" result="hardAlpha" type="matrix" values="0 0 0 0 0 0 0 0 0 0 0 0 0 0 0 0 0 0 127 0"/>
<feOffset/>
<feGaussianBlur stdDeviation="11"/>
<feComposite in2="hardAlpha" operator="out"/>
<feColorMatrix type="matrix" values="0 0 0 0 0.686275 0 0 0 0 0.890196 0 0 0 0 0.92549 0 0 0 0.5 0"/>
<feBlend in2="BackgroundImageFix" mode="normal" result="effect1_dropShadow_1083_953"/>
<feBlend in="SourceGraphic" in2="effect1_dropShadow_1083_953" mode="normal" result="shape"/>
</filter>
<filter color-interpolation-filters="sRGB" filterUnits="userSpaceOnUse" height="87.4257" id="filter24_d_1083_953" width="77.9961" x="279.778" y="321.569">
<feFlood flood-opacity="0" result="BackgroundImageFix"/>
<feColorMatrix in="SourceAlpha" result="hardAlpha" type="matrix" values="0 0 0 0 0 0 0 0 0 0 0 0 0 0 0 0 0 0 127 0"/>
<feOffset/>
<feGaussianBlur stdDeviation="11"/>
<feComposite in2="hardAlpha" operator="out"/>
<feColorMatrix type="matrix" values="0 0 0 0 0.686275 0 0 0 0 0.890196 0 0 0 0 0.92549 0 0 0 0.5 0"/>
<feBlend in2="BackgroundImageFix" mode="normal" result="effect1_dropShadow_1083_953"/>
<feBlend in="SourceGraphic" in2="effect1_dropShadow_1083_953" mode="normal" result="shape"/>
</filter>
<filter color-interpolation-filters="sRGB" filterUnits="userSpaceOnUse" height="82.6972" id="filter25_d_1083_953" width="85.0781" x="248.039" y="300.706">
<feFlood flood-opacity="0" result="BackgroundImageFix"/>
<feColorMatrix in="SourceAlpha" result="hardAlpha" type="matrix" values="0 0 0 0 0 0 0 0 0 0 0 0 0 0 0 0 0 0 127 0"/>
<feOffset/>
<feGaussianBlur stdDeviation="11"/>
<feComposite in2="hardAlpha" operator="out"/>
<feColorMatrix type="matrix" values="0 0 0 0 0.686275 0 0 0 0 0.890196 0 0 0 0 0.92549 0 0 0 0.5 0"/>
<feBlend in2="BackgroundImageFix" mode="normal" result="effect1_dropShadow_1083_953"/>
<feBlend in="SourceGraphic" in2="effect1_dropShadow_1083_953" mode="normal" result="shape"/>
</filter>
<filter color-interpolation-filters="sRGB" filterUnits="userSpaceOnUse" height="78.8683" id="filter26_d_1083_953" width="87.1398" x="236.05" y="287.929">
<feFlood flood-opacity="0" result="BackgroundImageFix"/>
<feColorMatrix in="SourceAlpha" result="hardAlpha" type="matrix" values="0 0 0 0 0 0 0 0 0 0 0 0 0 0 0 0 0 0 127 0"/>
<feOffset/>
<feGaussianBlur stdDeviation="11"/>
<feComposite in2="hardAlpha" operator="out"/>
<feColorMatrix type="matrix" values="0 0 0 0 0.686275 0 0 0 0 0.890196 0 0 0 0 0.92549 0 0 0 0.5 0"/>
<feBlend in2="BackgroundImageFix" mode="normal" result="effect1_dropShadow_1083_953"/>
<feBlend in="SourceGraphic" in2="effect1_dropShadow_1083_953" mode="normal" result="shape"/>
</filter>
<filter color-interpolation-filters="sRGB" filterUnits="userSpaceOnUse" height="74.1808" id="filter27_d_1083_953" width="88.1392" x="227.064" y="273.998">
<feFlood flood-opacity="0" result="BackgroundImageFix"/>
<feColorMatrix in="SourceAlpha" result="hardAlpha" type="matrix" values="0 0 0 0 0 0 0 0 0 0 0 0 0 0 0 0 0 0 127 0"/>
<feOffset/>
<feGaussianBlur stdDeviation="11"/>
<feComposite in2="hardAlpha" operator="out"/>
<feColorMatrix type="matrix" values="0 0 0 0 0.686275 0 0 0 0 0.890196 0 0 0 0 0.92549 0 0 0 0.5 0"/>
<feBlend in2="BackgroundImageFix" mode="normal" result="effect1_dropShadow_1083_953"/>
<feBlend in="SourceGraphic" in2="effect1_dropShadow_1083_953" mode="normal" result="shape"/>
</filter>
<filter color-interpolation-filters="sRGB" filterUnits="userSpaceOnUse" height="68.7501" id="filter28_d_1083_953" width="88.0516" x="221.302" y="259.253">
<feFlood flood-opacity="0" result="BackgroundImageFix"/>
<feColorMatrix in="SourceAlpha" result="hardAlpha" type="matrix" values="0 0 0 0 0 0 0 0 0 0 0 0 0 0 0 0 0 0 127 0"/>
<feOffset/>
<feGaussianBlur stdDeviation="11"/>
<feComposite in2="hardAlpha" operator="out"/>
<feColorMatrix type="matrix" values="0 0 0 0 0.686275 0 0 0 0 0.890196 0 0 0 0 0.92549 0 0 0 0.5 0"/>
<feBlend in2="BackgroundImageFix" mode="normal" result="effect1_dropShadow_1083_953"/>
<feBlend in="SourceGraphic" in2="effect1_dropShadow_1083_953" mode="normal" result="shape"/>
</filter>
<filter color-interpolation-filters="sRGB" filterUnits="userSpaceOnUse" height="62.71" id="filter29_d_1083_953" width="86.8795" x="218.905" y="244.06">
<feFlood flood-opacity="0" result="BackgroundImageFix"/>
<feColorMatrix in="SourceAlpha" result="hardAlpha" type="matrix" values="0 0 0 0 0 0 0 0 0 0 0 0 0 0 0 0 0 0 127 0"/>
<feOffset/>
<feGaussianBlur stdDeviation="11"/>
<feComposite in2="hardAlpha" operator="out"/>
<feColorMatrix type="matrix" values="0 0 0 0 0.686275 0 0 0 0 0.890196 0 0 0 0 0.92549 0 0 0 0.5 0"/>
<feBlend in2="BackgroundImageFix" mode="normal" result="effect1_dropShadow_1083_953"/>
<feBlend in="SourceGraphic" in2="effect1_dropShadow_1083_953" mode="normal" result="shape"/>
</filter>
<filter color-interpolation-filters="sRGB" filterUnits="userSpaceOnUse" height="61.4417" id="filter30_d_1083_953" width="86.517" x="218.837" y="223.558">
<feFlood flood-opacity="0" result="BackgroundImageFix"/>
<feColorMatrix in="SourceAlpha" result="hardAlpha" type="matrix" values="0 0 0 0 0 0 0 0 0 0 0 0 0 0 0 0 0 0 127 0"/>
<feOffset/>
<feGaussianBlur stdDeviation="11"/>
<feComposite in2="hardAlpha" operator="out"/>
<feColorMatrix type="matrix" values="0 0 0 0 0.686275 0 0 0 0 0.890196 0 0 0 0 0.92549 0 0 0 0.5 0"/>
<feBlend in2="BackgroundImageFix" mode="normal" result="effect1_dropShadow_1083_953"/>
<feBlend in="SourceGraphic" in2="effect1_dropShadow_1083_953" mode="normal" result="shape"/>
</filter>
<filter color-interpolation-filters="sRGB" filterUnits="userSpaceOnUse" height="67.5862" id="filter31_d_1083_953" width="87.9034" x="220.55" y="202.175">
<feFlood flood-opacity="0" result="BackgroundImageFix"/>
<feColorMatrix in="SourceAlpha" result="hardAlpha" type="matrix" values="0 0 0 0 0 0 0 0 0 0 0 0 0 0 0 0 0 0 127 0"/>
<feOffset/>
<feGaussianBlur stdDeviation="11"/>
<feComposite in2="hardAlpha" operator="out"/>
<feColorMatrix type="matrix" values="0 0 0 0 0.686275 0 0 0 0 0.890196 0 0 0 0 0.92549 0 0 0 0.5 0"/>
<feBlend in2="BackgroundImageFix" mode="normal" result="effect1_dropShadow_1083_953"/>
<feBlend in="SourceGraphic" in2="effect1_dropShadow_1083_953" mode="normal" result="shape"/>
</filter>
<filter color-interpolation-filters="sRGB" filterUnits="userSpaceOnUse" height="67.5862" id="filter32_d_1083_953" width="87.9034" x="220.55" y="202.175">
<feFlood flood-opacity="0" result="BackgroundImageFix"/>
<feColorMatrix in="SourceAlpha" result="hardAlpha" type="matrix" values="0 0 0 0 0 0 0 0 0 0 0 0 0 0 0 0 0 0 127 0"/>
<feOffset/>
<feGaussianBlur stdDeviation="11"/>
<feComposite in2="hardAlpha" operator="out"/>
<feColorMatrix type="matrix" values="0 0 0 0 0.686275 0 0 0 0 0.890196 0 0 0 0 0.92549 0 0 0 0.5 0"/>
<feBlend in2="BackgroundImageFix" mode="normal" result="effect1_dropShadow_1083_953"/>
<feBlend in="SourceGraphic" in2="effect1_dropShadow_1083_953" mode="normal" result="shape"/>
</filter>
<filter color-interpolation-filters="sRGB" filterUnits="userSpaceOnUse" height="73.1501" id="filter33_d_1083_953" width="88.2089" x="225.648" y="181.747">
<feFlood flood-opacity="0" result="BackgroundImageFix"/>
<feColorMatrix in="SourceAlpha" result="hardAlpha" type="matrix" values="0 0 0 0 0 0 0 0 0 0 0 0 0 0 0 0 0 0 127 0"/>
<feOffset/>
<feGaussianBlur stdDeviation="11"/>
<feComposite in2="hardAlpha" operator="out"/>
<feColorMatrix type="matrix" values="0 0 0 0 0.686275 0 0 0 0 0.890196 0 0 0 0 0.92549 0 0 0 0.5 0"/>
<feBlend in2="BackgroundImageFix" mode="normal" result="effect1_dropShadow_1083_953"/>
<feBlend in="SourceGraphic" in2="effect1_dropShadow_1083_953" mode="normal" result="shape"/>
</filter>
<filter color-interpolation-filters="sRGB" filterUnits="userSpaceOnUse" height="77.9961" id="filter34_d_1083_953" width="87.4258" x="234.004" y="162.779">
<feFlood flood-opacity="0" result="BackgroundImageFix"/>
<feColorMatrix in="SourceAlpha" result="hardAlpha" type="matrix" values="0 0 0 0 0 0 0 0 0 0 0 0 0 0 0 0 0 0 127 0"/>
<feOffset/>
<feGaussianBlur stdDeviation="11"/>
<feComposite in2="hardAlpha" operator="out"/>
<feColorMatrix type="matrix" values="0 0 0 0 0.686275 0 0 0 0 0.890196 0 0 0 0 0.92549 0 0 0 0.5 0"/>
<feBlend in2="BackgroundImageFix" mode="normal" result="effect1_dropShadow_1083_953"/>
<feBlend in="SourceGraphic" in2="effect1_dropShadow_1083_953" mode="normal" result="shape"/>
</filter>
<filter color-interpolation-filters="sRGB" filterUnits="userSpaceOnUse" height="82.005" id="filter35_d_1083_953" width="85.5734" x="245.414" y="145.736">
<feFlood flood-opacity="0" result="BackgroundImageFix"/>
<feColorMatrix in="SourceAlpha" result="hardAlpha" type="matrix" values="0 0 0 0 0 0 0 0 0 0 0 0 0 0 0 0 0 0 127 0"/>
<feOffset/>
<feGaussianBlur stdDeviation="11"/>
<feComposite in2="hardAlpha" operator="out"/>
<feColorMatrix type="matrix" values="0 0 0 0 0.686275 0 0 0 0 0.890196 0 0 0 0 0.92549 0 0 0 0.5 0"/>
<feBlend in2="BackgroundImageFix" mode="normal" result="effect1_dropShadow_1083_953"/>
<feBlend in="SourceGraphic" in2="effect1_dropShadow_1083_953" mode="normal" result="shape"/>
</filter>
<filter color-interpolation-filters="sRGB" filterUnits="userSpaceOnUse" height="87.1397" id="filter36_d_1083_953" width="78.8683" x="276.202" y="119.051">
<feFlood flood-opacity="0" result="BackgroundImageFix"/>
<feColorMatrix in="SourceAlpha" result="hardAlpha" type="matrix" values="0 0 0 0 0 0 0 0 0 0 0 0 0 0 0 0 0 0 127 0"/>
<feOffset/>
<feGaussianBlur stdDeviation="11"/>
<feComposite in2="hardAlpha" operator="out"/>
<feColorMatrix type="matrix" values="0 0 0 0 0.686275 0 0 0 0 0.890196 0 0 0 0 0.92549 0 0 0 0.5 0"/>
<feBlend in2="BackgroundImageFix" mode="normal" result="effect1_dropShadow_1083_953"/>
<feBlend in="SourceGraphic" in2="effect1_dropShadow_1083_953" mode="normal" result="shape"/>
</filter>
<filter color-interpolation-filters="sRGB" filterUnits="userSpaceOnUse" height="88.1392" id="filter37_d_1083_953" width="74.1808" x="294.821" y="110.064">
<feFlood flood-opacity="0" result="BackgroundImageFix"/>
<feColorMatrix in="SourceAlpha" result="hardAlpha" type="matrix" values="0 0 0 0 0 0 0 0 0 0 0 0 0 0 0 0 0 0 127 0"/>
<feOffset/>
<feGaussianBlur stdDeviation="11"/>
<feComposite in2="hardAlpha" operator="out"/>
<feColorMatrix type="matrix" values="0 0 0 0 0.686275 0 0 0 0 0.890196 0 0 0 0 0.92549 0 0 0 0.5 0"/>
<feBlend in2="BackgroundImageFix" mode="normal" result="effect1_dropShadow_1083_953"/>
<feBlend in="SourceGraphic" in2="effect1_dropShadow_1083_953" mode="normal" result="shape"/>
</filter>
<filter color-interpolation-filters="sRGB" filterUnits="userSpaceOnUse" height="85.0781" id="filter38_d_1083_953" width="82.6972" x="259.596" y="131.04">
<feFlood flood-opacity="0" result="BackgroundImageFix"/>
<feColorMatrix in="SourceAlpha" result="hardAlpha" type="matrix" values="0 0 0 0 0 0 0 0 0 0 0 0 0 0 0 0 0 0 127 0"/>
<feOffset/>
<feGaussianBlur stdDeviation="11"/>
<feComposite in2="hardAlpha" operator="out"/>
<feColorMatrix type="matrix" values="0 0 0 0 0.686275 0 0 0 0 0.890196 0 0 0 0 0.92549 0 0 0 0.5 0"/>
<feBlend in2="BackgroundImageFix" mode="normal" result="effect1_dropShadow_1083_953"/>
<feBlend in="SourceGraphic" in2="effect1_dropShadow_1083_953" mode="normal" result="shape"/>
</filter>
</defs>
</svg>