<svg xmlns="http://www.w3.org/2000/svg" width="272" height="202" fill="none"><rect width="193" height="35" x="39.5" y="21.5" stroke="url(#a)" rx="6.5"/><rect width="221" height="128" x="25.5" y="37.5" fill="url(#b)" stroke="url(#c)" rx="6.5"/><path fill="url(#d)" d="m128.344 69.147-78.75 113.871c-3.21 4.643.113 10.982 5.758 10.982h160.961c5.709 0 9.017-6.468 5.675-11.097L139.777 69.031c-2.829-3.918-8.684-3.859-11.433.116z" opacity=".1"/><path fill="#A48FF7" d="M80.886 92h-9.36v-1.72h3.72V81h-3.44v-1.56l1.04-.04c1.52-.06 2.48-.34 2.92-3h1.64v13.88h3.48V92zM95 92H84.6v-2c2.32-1.84 3.7-2.98 4.86-4.08 2.08-2 3.02-3.44 3.02-5.18 0-1.74-.98-2.9-2.86-2.9-2.08 0-3 1.46-3 3.36H84.6c0-2.92 1.82-5.08 5.12-5.08 2.98 0 4.92 1.7 4.92 4.38 0 2.52-1.56 4.6-3.72 6.58-.82.78-2.02 1.7-3.58 2.64v.4H95V92zm86.286.26c-3.88 0-5.54-2.84-5.64-5.06h2.16c.2 1.88 1.52 3.26 3.62 3.26 2.04 0 3.06-1.32 3.06-3.02 0-2.08-1.52-3.36-4.08-3.36h-.56v-1.8l2.1-2.28c.48-.52.86-.9 1.38-1.32v-.48h-6.84v-1.8h9.56v1.92l-3.8 3.88v.48c3.02.56 4.4 2.22 4.4 4.62 0 2.94-2.08 4.96-5.36 4.96zm13.514.02c-3.94 0-5.84-3.02-5.84-8.08 0-5.06 1.9-8.08 5.84-8.08 3.98 0 5.84 3.02 5.84 8.08 0 5.06-1.86 8.08-5.84 8.08zm0-1.8c2.52 0 3.6-2.1 3.6-6.28s-1.08-6.28-3.6-6.28-3.6 2.1-3.6 6.28 1.08 6.28 3.6 6.28z"/><defs><linearGradient id="a" x1="136" x2="136" y1="21" y2="57" gradientUnits="userSpaceOnUse"><stop stop-color="#937BF8" stop-opacity=".28"/><stop offset="1" stop-color="#6646EB" stop-opacity="0"/></linearGradient><linearGradient id="b" x1="136" x2="136" y1="37" y2="166" gradientUnits="userSpaceOnUse"><stop stop-color="#0B0C24"/><stop offset="1" stop-color="#0B0C24" stop-opacity="0"/></linearGradient><linearGradient id="c" x1="136" x2="136" y1="37" y2="166" gradientUnits="userSpaceOnUse"><stop stop-color="#937BF8" stop-opacity=".28"/><stop offset="1" stop-color="#6646EB" stop-opacity="0"/></linearGradient><linearGradient id="d" x1="136" x2="136" y1="61" y2="191.375" gradientUnits="userSpaceOnUse"><stop stop-color="#C0B2FF"/><stop offset="1" stop-color="#DAD3FA" stop-opacity="0"/></linearGradient></defs></svg>