<svg xmlns="http://www.w3.org/2000/svg" width="272" height="203" fill="none"><rect width="183" height="143" x="64" y="60" fill="url(#a)" opacity=".3" rx="7"/><rect width="221" height="177" x="25.5" y="25.5" stroke="url(#b)" rx="6.5"/><path fill="#6646EB" d="M31.782 30.573a4 4 0 1 0 5.805 5.503 4 4 0 0 0-5.805-5.503zm27.554 26.852a.75.75 0 0 0 .73-.77l-.18-6.747a.75.75 0 0 0-1.5.04l.16 5.998-5.997.16a.75.75 0 1 0 .04 1.5l6.747-.18zM34.17 33.87 58.8 57.219l1.032-1.088-24.631-23.35-1.032 1.088z"/><path fill="#A48FF7" d="M130.299 102h-9.277V87.7h9.167v1.723h-7.114v4.052h5.61v1.65h-5.61v5.152h7.224V102zm3.289 0h-2.017v-.11l3.575-5.738-3.117-5.042V91h2.017l2.273 3.777h.33L138.886 91h1.907v.11l-3.08 5.005 3.575 5.775v.11h-2.127l-2.622-4.473h-.33L133.588 102zm13.111 0h-2.182c-.55-.66-.898-1.412-.898-3.282V92.54h-1.504V91h1.54v-2.75h1.907V91h1.87v1.54h-1.833v5.867c0 2.016.495 2.823 1.1 3.483v.11zm7.047.275c-3.227 0-4.932-2.31-4.932-5.775 0-3.428 1.687-5.775 4.914-5.775 3.006 0 4.62 1.998 4.62 5.72v.568h-7.609c.11 2.145 1.1 3.685 3.025 3.685 1.394 0 2.237-.825 2.604-2.218h1.87c-.477 2.237-1.852 3.795-4.492 3.795zm-2.988-6.692h5.665c-.074-2.126-1.082-3.281-2.714-3.281-1.741 0-2.731 1.21-2.951 3.281zM162.739 102h-1.98V91h1.76v1.65h.44c.404-1.228 1.449-1.925 3.044-1.925 2.566 0 3.666 1.76 3.666 4.217V102h-1.98v-6.637c0-1.906-.66-2.951-2.108-2.951-1.797 0-2.842 1.595-2.842 3.666V102zm13.537.275c-3.043 0-4.436-1.833-4.546-3.795h1.943c.11 1.1.88 2.255 2.658 2.255 1.302 0 2.035-.605 2.035-1.503 0-.789-.531-1.302-1.686-1.724l-1.302-.458c-1.76-.66-3.135-1.393-3.135-3.227 0-1.87 1.43-3.098 3.777-3.098 2.53 0 3.74 1.448 3.886 3.355h-1.87c-.11-.917-.66-1.815-2.108-1.815-1.155 0-1.778.532-1.778 1.393 0 .825.586 1.32 1.76 1.76l1.301.44c1.76.66 3.062 1.375 3.062 3.209 0 1.888-1.412 3.208-3.997 3.208zm7.301-12.815c-.77 0-1.21-.477-1.21-1.21s.44-1.21 1.21-1.21 1.21.477 1.21 1.21-.44 1.21-1.21 1.21zm.99 12.54h-1.98V91h1.98v11zm7.354.275c-3.355 0-4.95-2.255-4.95-5.775 0-3.52 1.595-5.775 4.95-5.775 3.355 0 4.95 2.255 4.95 5.775 0 3.52-1.595 5.775-4.95 5.775zm0-1.613c2.035 0 2.933-1.595 2.933-4.162s-.898-4.162-2.933-4.162c-2.035 0-2.934 1.595-2.934 4.162s.899 4.162 2.934 4.162zm9.34 1.338h-1.98V91h1.76v1.65h.44c.403-1.228 1.448-1.925 3.043-1.925 2.567 0 3.667 1.76 3.667 4.217V102h-1.98v-6.637c0-1.906-.66-2.951-2.109-2.951-1.796 0-2.841 1.595-2.841 3.666V102z"/><rect width="28" height="28" x="83" y="80" fill="#2F2B57" rx="4"/><defs><linearGradient id="a" x1="155.5" x2="155.5" y1="60" y2="203" gradientUnits="userSpaceOnUse"><stop stop-color="#937BF8" stop-opacity=".28"/><stop offset="1" stop-color="#6646EB" stop-opacity="0"/></linearGradient><linearGradient id="b" x1="136" x2="136" y1="25" y2="203" gradientUnits="userSpaceOnUse"><stop stop-color="#937BF8" stop-opacity=".28"/><stop offset="1" stop-color="#6646EB" stop-opacity="0"/></linearGradient></defs></svg>