<svg xmlns="http://www.w3.org/2000/svg" width="446" height="345" fill="none"><g clip-path="url(#a)"><g opacity=".5"><mask id="c" fill="#fff"><path d="M443 257.5A221.49 221.49 0 0 0 306.264 52.86a221.495 221.495 0 0 0-241.388 48.016A221.496 221.496 0 0 0 0 257.5h1.2A220.299 220.299 0 0 1 305.804 53.969 220.293 220.293 0 0 1 425.03 173.195 220.303 220.303 0 0 1 441.8 257.5h1.2z"/></mask><path stroke="url(#b)" stroke-dasharray="6 6" stroke-width="2" d="M443 257.5A221.49 221.49 0 0 0 306.264 52.86a221.495 221.495 0 0 0-241.388 48.016A221.496 221.496 0 0 0 0 257.5h1.2A220.299 220.299 0 0 1 305.804 53.969 220.293 220.293 0 0 1 425.03 173.195 220.303 220.303 0 0 1 441.8 257.5h1.2z" mask="url(#c)"/></g><path fill="url(#d)" d="M70 267.5A151.502 151.502 0 0 1 221.5 116c40.18 0 78.715 15.962 107.127 44.373A151.505 151.505 0 0 1 373 267.5H70z" opacity=".2"/><path stroke="url(#e)" stroke-dasharray="6 6" stroke-linecap="square" d="M.5 271.5h443" opacity=".5"/><g filter="url(#f)"><rect width="72" height="72" x="186" fill="#34304E" rx="36"/></g><path fill="url(#g)" d="M225.87 48.328c-3.564-1.364-7.229-1.573-10.59-.63-2.341.63-4.581 1.89-6.618 3.463l-1.425 1.26-.408.419.917.84c.102 0 .102.104.203.209.204.21.408.315.713.525l.611.42.611-.525c.102-.105.306-.315.509-.42 1.833-1.574 3.869-2.623 6.007-3.148 2.75-.734 5.702-.629 8.655.525 2.444.944 7.433 2.099 13.44-.524l.204-.105.305-.315c0-.105.102-.105.204-.21.509-.63 1.018-1.259 1.425-1.994l2.037-3.252-3.258 1.889c-4.786 2.727-9.164 3.252-13.542 1.573z"/><path fill="url(#h)" d="M211.921 36.998c2.749-.735 5.702-.63 8.654.525 3.259 1.258 11.608 3.042 20.975-5.666l2.036-2.098-.203-.525c-.102-.42-.306-.944-.509-1.469l-.509-1.469-1.019 1.05c-.101.21-.305.314-.509.524-4.48 4.721-11.403 9.547-19.345 6.61-3.564-1.364-7.23-1.574-10.59-.63-3.258.945-6.109 2.728-8.756 5.246v-.105l-1.527 1.679c0 .105-.102.105-.204.21l-.305.315.101.42c.102.524.306 1.048.408 1.573l.611 1.679 1.018-1.364c.102-.21.305-.315.407-.525 2.138-1.993 5.091-4.826 9.266-5.98z"/><path fill="url(#i)" d="M202.044 35.109c2.342-2.518 4.989-4.092 7.84-4.931 2.749-.735 5.702-.63 8.655.524 9.164 3.463 17.106-2.203 20.567-5.246l1.324-1.363.509-.42-.407-.63c-.306-.314-.509-.734-.815-1.154l-.611-.84-.712.735-.408.42c-4.276 4.197-10.894 8.498-18.429 5.56-3.564-1.363-7.229-1.573-10.589-.629-2.138.63-4.175 1.679-6.211 3.043l-2.138 1.784-.509.524-.204.21v.315c-.102.734-.102 1.468-.204 2.098l-.101 2.623 1.731-1.889c.203-.21.407-.524.712-.734z"/><path fill="url(#j)" d="M228.823 55.463c-.305-.105-.509-.21-.814-.315-3.564-1.363-7.229-1.573-10.589-.629-.713.21-1.426.42-2.139.734l-2.443 1.155-.611.314 2.036.735 1.833.63.305.104.306-.105c.305-.105.611-.314.916-.314.204 0 .407-.105.611-.21 2.444-.63 5.091-.63 7.942.314.305.105.509.21.815.315l.509.21.305-.105c.713-.21 1.527-.42 2.138-.734l2.851-1.05-2.953-.734c-.305-.105-.712-.21-1.018-.315z"/><path fill="url(#k)" d="m244.401 33.745-1.528 1.574-.611.63c-4.174 4.091-10.894 8.498-18.429 5.56-3.564-1.364-7.229-1.574-10.589-.63-3.157.945-6.008 2.623-8.553 5.142l-1.324 1.468-.407.525.407.63c.306.42.509.734.713 1.154l.611.944.713-.944.407-.42c2.444-2.728 5.091-4.407 8.146-5.246 2.749-.734 5.701-.63 8.654.525a16.706 16.706 0 0 0 7.84.944c4.684-.525 9.368-3.253 12.83-6.295.203-.21.407-.315.61-.525l.306-.315v-.314c0-.63.102-1.364.102-1.994l.102-2.413z"/><path fill="url(#l)" d="M205.71 24.093c.611-.315 1.324-.525 1.935-.735 2.749-.734 5.702-.63 8.655.525 1.934.734 3.869 1.049 6.007 1.049 4.276 0 8.553-1.574 12.524-4.616l2.036-1.68-.916-.734a4.545 4.545 0 0 0-1.12-.839l-.611-.42-.509.42c-.204.105-.306.315-.509.42-5.397 4.196-10.793 5.35-15.884 3.357-3.666-1.364-7.331-1.679-10.997-.524-.305.104-.611.21-1.018.314l-.204.105-.305.315c0 .105-.102.105-.204.21-.407.63-.916 1.154-1.323 1.783l-1.935 3.043 3.156-1.679c.51 0 .917-.21 1.222-.314z"/><path fill="url(#m)" d="m214.059 16.958.305.105c1.324.524 3.36 1.05 5.906 1.05 2.647 0 5.193-.63 7.738-1.68l3.157-1.573-2.139-.735c-.611-.21-1.222-.42-1.934-.524h-.306l-.305.104c-.306.105-.611.315-.917.42-3.054 1.154-6.109 1.364-9.061.525l-.917-.315-.305-.105-.306.105c-.611.21-1.222.42-1.832.734l-2.342 1.05 2.443.734c.204-.105.509 0 .815.105z"/><g filter="url(#n)"><rect width="58" height="58" x="55" y="58" fill="#34304E" rx="29"/></g><path fill="url(#o)" d="M84 69c-9.91 0-18 8.09-18 18s8.09 18 18 18 18-8.09 18-18-8.09-18-18-18zM71.028 87c0-3.717 1.604-7.142 4.154-9.474 1.02-.947 2.77-.656 3.498.583l4.518 7.798a2.237 2.237 0 0 1 0 2.332l-4.518 7.797c-.729 1.312-2.478 1.53-3.57.51-2.478-2.477-4.082-5.83-4.082-9.546zm18.292 8.89-4.518-7.797a2.237 2.237 0 0 1 0-2.332l4.518-7.797c.729-1.24 2.405-1.53 3.498-.583a12.873 12.873 0 0 1 4.154 9.473c0 3.717-1.604 7.142-4.154 9.474-1.093 1.166-2.77.874-3.498-.437z"/><g filter="url(#p)"><rect width="58" height="58" x="331" y="58" fill="#34304E" rx="29"/></g><path fill="url(#q)" d="m360.277 96.175-4.395-4.395c-3.109-3.109-8.362-.911-8.362 3.484V101h25.515V83.418l-12.758 12.757z"/><path fill="url(#r)" d="m360.277 76.824 4.396 4.396c3.109 3.109 8.362.911 8.362-3.484V72H347.52v17.582l12.757-12.758z"/><g filter="url(#s)"><rect width="41" height="41" x="405" y="156" fill="#34304E" rx="20.5"/></g><path fill="url(#t)" d="M430.598 165h-9.196L414 172.402v9.196l7.402 7.402h9.196l7.402-7.402v-9.196L430.598 165zm-7.923 16.713-4.742-4.742 4.742-4.742c1.792-1.793 4.742-1.793 6.535 0l4.742 4.742-4.742 4.742c-1.793 1.793-4.685 1.793-6.535 0z"/><g filter="url(#u)"><rect width="41" height="41" y="156" fill="#34304E" rx="20.5"/></g><path fill="url(#v)" d="m26.814 179.553 3.34-3.34c0-2.29-.572-4.485-1.622-6.394l-7.777 7.205V189h1.479c5.2 0 9.447-4.199 9.447-9.447h-4.867z"/><path fill="url(#w)" d="m14.79 174.447-3.34 3.34c0 2.291.572 4.485 1.622 6.394l7.777-7.205V165H19.37c-5.2 0-9.447 4.199-9.447 9.447h4.867z"/><rect width="143.972" height="143.972" x="152.014" y="196.014" fill="#120640" rx="71.986"/><g opacity=".2"><rect width="136.083" height="136.083" x="155.958" y="199.958" fill="url(#x)" rx="68.042"/><rect width="136.083" height="136.083" x="155.958" y="199.958" stroke="#B0AEF9" stroke-width="5.917" rx="68.042"/><rect width="136.083" height="136.083" x="155.958" y="199.958" stroke="#000" stroke-opacity=".2" stroke-width="5.917" rx="68.042"/></g><circle cx="224" cy="268" r="76.917" fill="url(#y)" opacity=".5"/><rect width="128.194" height="128.194" x="159.903" y="203.903" stroke="url(#z)" stroke-width="1.972" opacity=".4" rx="64.097"/><g filter="url(#A)"><path fill="url(#B)" d="M215.23 271.012h-15.503c-2.197 0-3.415-2.56-2.037-4.281l30.919-38.624c1.548-1.934 4.653-.833 4.653 1.65v30.65c0 .581.468 1.052 1.046 1.052h13.966c2.132 0 3.368 2.428 2.123 4.168l-29.381 41.076c-1.484 2.074-4.739 1.019-4.739-1.536v-33.103a1.05 1.05 0 0 0-1.047-1.052z"/></g><rect width="143.972" height="143.972" x="152.014" y="196.014" stroke="url(#C)" stroke-width="1.972" rx="71.986"/></g><defs><linearGradient id="b" x1="221.5" x2="221.5" y1="36" y2="237.417" gradientUnits="userSpaceOnUse"><stop stop-color="#BF98FF"/><stop offset=".544" stop-color="#fff" stop-opacity="0"/></linearGradient><linearGradient id="d" x1="229.188" x2="229.188" y1="45.903" y2="297.348" gradientUnits="userSpaceOnUse"><stop offset=".186" stop-color="#AD7AFF"/><stop offset="1" stop-color="#17141E" stop-opacity="0"/></linearGradient><linearGradient id="e" x1="444" x2="29.977" y1="272" y2="272" gradientUnits="userSpaceOnUse"><stop offset=".002" stop-color="#fff" stop-opacity="0"/><stop offset=".505" stop-color="#B4A8FF"/><stop offset="1" stop-color="#fff" stop-opacity="0"/></linearGradient><linearGradient id="g" x1="222.001" x2="222.001" y1="13.601" y2="72.4" gradientUnits="userSpaceOnUse"><stop stop-color="#fff"/><stop offset="1" stop-color="#fff" stop-opacity="0"/></linearGradient><linearGradient id="h" x1="222.001" x2="222.001" y1="13.601" y2="72.4" gradientUnits="userSpaceOnUse"><stop stop-color="#fff"/><stop offset="1" stop-color="#fff" stop-opacity="0"/></linearGradient><linearGradient id="i" x1="222.001" x2="222.001" y1="13.601" y2="72.4" gradientUnits="userSpaceOnUse"><stop stop-color="#fff"/><stop offset="1" stop-color="#fff" stop-opacity="0"/></linearGradient><linearGradient id="j" x1="222.001" x2="222.001" y1="13.601" y2="72.4" gradientUnits="userSpaceOnUse"><stop stop-color="#fff"/><stop offset="1" stop-color="#fff" stop-opacity="0"/></linearGradient><linearGradient id="k" x1="222.001" x2="222.001" y1="13.601" y2="72.4" gradientUnits="userSpaceOnUse"><stop stop-color="#fff"/><stop offset="1" stop-color="#fff" stop-opacity="0"/></linearGradient><linearGradient id="l" x1="222.001" x2="222.001" y1="13.601" y2="72.4" gradientUnits="userSpaceOnUse"><stop stop-color="#fff"/><stop offset="1" stop-color="#fff" stop-opacity="0"/></linearGradient><linearGradient id="m" x1="222.001" x2="222.001" y1="13.601" y2="72.4" gradientUnits="userSpaceOnUse"><stop stop-color="#fff"/><stop offset="1" stop-color="#fff" stop-opacity="0"/></linearGradient><linearGradient id="o" x1="84" x2="84" y1="69" y2="116.25" gradientUnits="userSpaceOnUse"><stop stop-color="#fff"/><stop offset="1" stop-color="#fff" stop-opacity="0"/></linearGradient><linearGradient id="q" x1="360.277" x2="360.277" y1="72" y2="110.062" gradientUnits="userSpaceOnUse"><stop stop-color="#fff"/><stop offset="1" stop-color="#fff" stop-opacity="0"/></linearGradient><linearGradient id="r" x1="360.277" x2="360.277" y1="72" y2="110.062" gradientUnits="userSpaceOnUse"><stop stop-color="#fff"/><stop offset="1" stop-color="#fff" stop-opacity="0"/></linearGradient><linearGradient id="t" x1="426" x2="426" y1="165" y2="196.5" gradientUnits="userSpaceOnUse"><stop stop-color="#fff"/><stop offset="1" stop-color="#fff" stop-opacity="0"/></linearGradient><linearGradient id="v" x1="26.218" x2="26.218" y1="169.819" y2="194.994" gradientUnits="userSpaceOnUse"><stop stop-color="#fff"/><stop offset="1" stop-color="#fff" stop-opacity="0"/></linearGradient><linearGradient id="w" x1="15.386" x2="15.386" y1="165" y2="190.175" gradientUnits="userSpaceOnUse"><stop stop-color="#fff"/><stop offset="1" stop-color="#fff" stop-opacity="0"/></linearGradient><linearGradient id="x" x1="220.397" x2="220.397" y1="371.851" y2="254.012" gradientUnits="userSpaceOnUse"><stop offset=".182" stop-color="#AD7AFF"/><stop offset="1" stop-color="#17141E" stop-opacity="0"/></linearGradient><linearGradient id="z" x1="156.945" x2="281.831" y1="223.944" y2="331.195" gradientUnits="userSpaceOnUse"><stop stop-color="#1D0062" stop-opacity="0"/><stop offset="1" stop-color="#070317"/></linearGradient><linearGradient id="B" x1="223.82" x2="223.82" y1="222.295" y2="313.329" gradientUnits="userSpaceOnUse"><stop stop-color="#fff"/><stop offset="1" stop-color="#CAC5FF"/></linearGradient><linearGradient id="C" x1="224" x2="224" y1="197" y2="339" gradientUnits="userSpaceOnUse"><stop stop-color="#DECFFF" stop-opacity=".36"/><stop offset="1" stop-color="#fff" stop-opacity="0"/></linearGradient><filter id="f" width="120" height="120" x="162" y="-24" color-interpolation-filters="sRGB" filterUnits="userSpaceOnUse"><feFlood flood-opacity="0" result="BackgroundImageFix"/><feGaussianBlur in="BackgroundImageFix" stdDeviation="12"/><feComposite in2="SourceAlpha" operator="in" result="effect1_backgroundBlur_266_2906"/><feBlend in="SourceGraphic" in2="effect1_backgroundBlur_266_2906" result="shape"/></filter><filter id="n" width="96.667" height="96.667" x="35.667" y="38.667" color-interpolation-filters="sRGB" filterUnits="userSpaceOnUse"><feFlood flood-opacity="0" result="BackgroundImageFix"/><feGaussianBlur in="BackgroundImageFix" stdDeviation="9.667"/><feComposite in2="SourceAlpha" operator="in" result="effect1_backgroundBlur_266_2906"/><feBlend in="SourceGraphic" in2="effect1_backgroundBlur_266_2906" result="shape"/></filter><filter id="p" width="96.667" height="96.667" x="311.667" y="38.667" color-interpolation-filters="sRGB" filterUnits="userSpaceOnUse"><feFlood flood-opacity="0" result="BackgroundImageFix"/><feGaussianBlur in="BackgroundImageFix" stdDeviation="9.667"/><feComposite in2="SourceAlpha" operator="in" result="effect1_backgroundBlur_266_2906"/><feBlend in="SourceGraphic" in2="effect1_backgroundBlur_266_2906" result="shape"/></filter><filter id="s" width="68.333" height="68.333" x="391.333" y="142.333" color-interpolation-filters="sRGB" filterUnits="userSpaceOnUse"><feFlood flood-opacity="0" result="BackgroundImageFix"/><feGaussianBlur in="BackgroundImageFix" stdDeviation="6.833"/><feComposite in2="SourceAlpha" operator="in" result="effect1_backgroundBlur_266_2906"/><feBlend in="SourceGraphic" in2="effect1_backgroundBlur_266_2906" result="shape"/></filter><filter id="u" width="68.333" height="68.333" x="-13.667" y="142.333" color-interpolation-filters="sRGB" filterUnits="userSpaceOnUse"><feFlood flood-opacity="0" result="BackgroundImageFix"/><feGaussianBlur in="BackgroundImageFix" stdDeviation="6.833"/><feComposite in2="SourceAlpha" operator="in" result="effect1_backgroundBlur_266_2906"/><feBlend in="SourceGraphic" in2="effect1_backgroundBlur_266_2906" result="shape"/></filter><filter id="A" width="115.686" height="142.579" x="166.158" y="205.015" color-interpolation-filters="sRGB" filterUnits="userSpaceOnUse"><feFlood flood-opacity="0" result="BackgroundImageFix"/><feColorMatrix in="SourceAlpha" result="hardAlpha" values="0 0 0 0 0 0 0 0 0 0 0 0 0 0 0 0 0 0 127 0"/><feOffset dy="8.842"/><feGaussianBlur stdDeviation="15.474"/><feComposite in2="hardAlpha" operator="out"/><feColorMatrix values="0 0 0 0 1 0 0 0 0 1 0 0 0 0 1 0 0 0 0.25 0"/><feBlend in2="BackgroundImageFix" result="effect1_dropShadow_266_2906"/><feBlend in="SourceGraphic" in2="effect1_dropShadow_266_2906" result="shape"/></filter><radialGradient id="y" cx="0" cy="0" r="1" gradientTransform="matrix(0 71 -71 0 224 268)" gradientUnits="userSpaceOnUse"><stop offset=".161" stop-color="#6646EB" stop-opacity=".54"/><stop offset="1" stop-color="#040D15" stop-opacity="0"/></radialGradient><clipPath id="a"><path fill="#fff" d="M0 0h446v345H0z"/></clipPath></defs></svg>