<svg width="77" height="78" viewBox="0 0 77 78" fill="none" xmlns="http://www.w3.org/2000/svg">
<path d="M22.586 55.723H30.27V31.004H22.586V55.723ZM26.43 18.716C23.967 18.716 21.977 20.714 21.977 23.174C21.977 26.011 24.627 28.227 27.595 27.478C29.096 27.099 30.328 25.879 30.722 24.382C31.507 21.403 29.277 18.716 26.43 18.716ZM49.833 30.394C46.096 30.394 43.589 32.441 42.565 34.386H42.46V31.004H35.089V55.723H42.769V43.497C42.769 40.273 43.38 37.147 47.377 37.147C51.321 37.147 51.371 40.836 51.371 43.703V55.724H59.051V42.166C59.05 35.511 57.613 30.394 49.833 30.394Z" fill="white"/>
<path d="M64.99 62.75C63.943 63.063 63.359 64.23 62.863 65.132C62.411 65.954 61.542 66.915 61.541 67.875C61.541 68.188 61.856 68.432 62.164 68.344C63.091 68.081 63.787 66.999 64.458 66.348C65.199 65.628 66.189 64.748 66.206 63.665C66.215 63.059 65.583 62.573 64.99 62.75Z" fill="white"/>
<path d="M76.204 41.741C80.746 23.399 61.794 4.852 44.551 1.588C35.076 -0.206003 25.216 1.502 17.131 6.764C10.189 11.283 3.08799 19.317 2.21499 27.812C2.19599 27.998 2.25099 28.151 2.33599 28.283C-3.13001 42.316 2.82599 59.958 14.819 68.858C26.712 77.684 46.258 80.781 58.904 71.559C59.971 70.781 59.079 69.228 57.86 69.794C57.401 70.007 56.943 70.218 56.486 70.425C56.254 70.025 55.779 69.768 55.181 70.052C46.763 74.046 35.073 72.027 26.751 69.06C25.813 68.725 25.166 70.224 26.068 70.661C30.5 72.808 35.319 74.072 40.253 74.334C42.316 74.443 44.385 74.369 46.438 74.152C43.3 74.938 40.054 75.306 36.567 74.99C29.481 74.347 23.215 71.71 17.356 67.795C10.489 63.206 5.79998 57.614 3.57598 49.615C1.64898 42.684 1.547 35.385 3.678 28.525C3.771 28.459 3.85398 28.377 3.91198 28.267C4.28398 27.567 4.64598 26.878 5.00698 26.193C2.90198 31.62 2.28 37.641 3.225 43.387C5.016 54.275 11.151 61.472 20.187 67.379C21.271 68.088 22.356 66.265 21.206 65.656C13.186 61.409 6.826 51.736 5.48 42.901C3.993 33.137 7.543 23.982 13.35 16.209C13.846 15.545 12.795 14.822 12.228 15.354C11.275 16.248 10.393 17.205 9.58199 18.213C10.914 16.215 12.401 14.331 14.188 12.584C13.781 13.269 14.433 14.31 15.259 13.78C17.37 12.425 19.406 10.988 21.596 9.754C23.155 8.876 24.819 8.172 26.42 7.369C26.677 7.452 26.979 7.467 27.325 7.379C38.943 4.427 50.511 5.702 59.566 14.192C59.918 14.522 60.351 14.373 60.563 14.075C60.48 14.498 60.71 14.991 61.274 14.991C62.256 14.991 62.258 13.482 61.274 13.482C60.998 13.482 60.808 13.606 60.687 13.777C60.708 13.607 60.662 13.425 60.507 13.262C57.485 10.077 53.676 7.415 49.49 5.549C61.734 10.032 71.911 20.992 73.377 33.644C72.462 29.6 70.781 25.696 68.305 22.164C67.679 21.271 66.283 22.047 66.817 23.024C70.107 29.042 71.661 35.625 71.879 42.443C72.106 49.566 69.338 55.639 65.553 61.515C65.168 62.113 66.058 62.843 66.55 62.349C66.776 62.466 67.063 62.468 67.302 62.245C72.77 57.15 76.77 49.501 76.232 41.856C76.228 41.813 76.211 41.781 76.204 41.741Z" fill="white"/>
<path d="M23.07 68.286C22.831 68.847 23.15 69.406 23.708 69.6C24.116 69.741 24.492 69.883 24.922 69.936C25.662 70.028 25.937 69.02 25.497 68.565C25.206 68.265 24.815 68.052 24.467 67.821C23.974 67.492 23.285 67.783 23.07 68.286Z" fill="white"/>
</svg>
